<svg xmlns="http://www.w3.org/2000/svg" viewBox="0 0 2033.74 1491.54"><defs><style>.cls-1{fill:#ea9a81;}.cls-2{fill:#ed6b6c;}.cls-3{fill:#f7f0f7;}.cls-4{fill:#30262a;}.cls-5{fill:#44393d;}.cls-6{fill:#a74c3b;}</style></defs><g id="Layer_2" data-name="Layer 2"><g id="_Layer_" data-name="&lt;Layer&gt;"><path class="cls-1" d="M26.51,985.94c13.26,7.82,9.61-38.75,9.61-38.75s2.51,43.32,13,51.39c8.37,6.43,11.77-34.32,12.34-48.34l.38,0c.63,13.74,2.25,56.55,12.19,60.09,11.27,4,10.57-52.05,10.27-60.41h.14c12.34,90.27,24.76,23.65,22.62-15.47,6.68,5.14,21.81,14.15,25.42,10.46,4.16-4.25-7-20.86-10.66-25.55-8.4-10.82-20.66-35.67-29.27-46.32-3.73-4.62-61.71,5.51-61.71,5.51s-6.51,17.44-9.4,45.28a22.77,22.77,0,0,0-.73,5.18c-.06,2.31-.2,5.38-.34,8.86v0h0C19.72,954.65,19,981.53,26.51,985.94Z"/><path class="cls-2" d="M218.84,272.79S63.56,295.79,16.72,438.7c-33.89,103.4-6.91,423.26,0,443.46s84.07,19.53,101.63,0S218.84,272.79,218.84,272.79Z"/><path class="cls-3" d="M486.1,860.88c-4,66.26-11.5,152.26-25.4,257.42-11.84,89.5-24.81,258.42-36.94,339.06l-14.27.23c-52.83.84-106.35,1.87-159.79,3l8.56-281.17h0l.05-1.18v0l9.17-216.3,2.64-104h0c.52-.24,8.83-4.17,21.93-9.63v0c9.95-4.15,22.63-9.18,36.76-14.18,47.92-16.94,112.34-33.32,141.67-12.57h0c7.52,5.34,12.73,13.11,14.75,23.93h0c.15.73.28,1.46.38,2.21A66.5,66.5,0,0,1,486.1,860.88Z"/><path class="cls-3" d="M294.7,782c-.38,15.32-1,32.82-1.93,52.48q-.33,6.71-.7,13.75v0c-.16,3-.34,6.06-.5,9.15-3.83,67.41-11.39,156.42-25.94,266.4q-3.58,27.2-7.32,54.36v0c0,.27-.07.53-.1.78h0c-9.62,70.18-19.68,218.47-29.23,282q-17.92.38-35.79.79l-26.54.59c-37.64.83-75.05,1.72-111.95,2.59l13.36-394.38h0l4.37-103.2,2.25-89,.08-2.72L75.1,862l.05-1.7.35-14.19h0l.07-3,.14-5.34,2.16-85.45,4-.92,44.6-10.36h0L208.9,722h0l26.43-6.13,59.21-13.75s.28,5.3.5,15.83C295.3,731.13,295.43,752.54,294.7,782Z"/><path class="cls-4" d="M257,1180.33c-.15-1.19-15.17-119-26.45-161.23-11.19-41.82-63-78.15-63.54-78.51l1.56-2.24c.53.36,53.17,37.27,64.61,80,11.33,42.38,26.37,160.4,26.52,161.59Z"/><path class="cls-1" d="M256.24,259.4l13.7-43.09,4-12.55L297.38,130l3.09,73.37,1.84,44,.59,13.94c.39,9.47,6.31,11.46,13.52,19.68,2.92,3.33,21.6,23.53.4,32.66-26.41,11.37-75.78-5.85-94.55-28.4C222.42,285.26,251.81,273.32,256.24,259.4Z"/><ellipse class="cls-1" cx="293.8" cy="157.54" rx="67.24" ry="79.08" transform="translate(-20.41 46.13) rotate(-8.68)"/><path class="cls-4" d="M365.93,104.11s-41.09,38.56-35.67,60.25,4.05,30.19-20,41.76-2.8,30.37-34.79,31.72-86.65-29.57-71.17-96C212,109,224.25,86,224.25,86Z"/><path class="cls-4" d="M486.1,860.88s-279-16-411.42,17.49l-2-39.6,185.66-57.68L408.26,785l46.05,10.3,32.49,52.65Z"/><path class="cls-2" d="M67,378.49S91.55,267.69,241.77,267.7c261.79,0,188.36,224,212.58,580.21,0,0-168.77-38.37-413,12.7,0,0-23.78-192.89,6.94-355.95C56.4,461.6,54.94,415.92,67,378.49Z"/><path class="cls-4" d="M202.5,151.86s-12-47.5,12.18-71.65,101.63-30.82,137.44,0,34.15,33.73,22.28,39.35S373.15,140,353.16,143.3s-5.79,39.3-40.38,32.14S202.5,151.86,202.5,151.86Z"/><path class="cls-1" d="M341.68,165.26c-4.66-6.44-13.22-8.37-19.12-4.31s-6.92,12.56-2.26,19,13.22,8.37,19.12,4.32S346.34,171.7,341.68,165.26Z"/><path class="cls-4" d="M331.39,187.07c-3.25,0-8.84-1.36-13.06-9.55a.47.47,0,0,1,.21-.64.46.46,0,0,1,.63.21c5.9,11.45,14.23,8.86,14.58,8.75a.47.47,0,0,1,.3.89A9.36,9.36,0,0,1,331.39,187.07Z"/><path class="cls-4" d="M82.34,812.86C63.57,618.29,92.62,421.18,92.92,419.21l1.72.26c-.3,2-29.32,198.87-10.57,393.22Z"/><path class="cls-3" d="M1334.34,1478.75c-53.35-2.35-109.59-5-169.16-7.86-14.06-91.76-29.84-278.46-44-385.57-13.9-105.17-21.43-191.15-25.4-257.42a65.69,65.69,0,0,1,.45-13.21c.1-.75.23-1.47.36-2.2h0c2-10.85,7.25-18.61,14.77-23.94h0c29.34-20.77,93.79-4.37,141.71,12.57,14.12,5,26.79,10,36.73,14.18,13.53,5.64,22,9.65,22,9.65h0l2.63,103.95,9.18,216.34v0h0l0,1.14h0Z"/><path class="cls-3" d="M1529.47,1486.41c-52.91-1.75-109-4-168.71-6.51-11.77-76.82-24.81-244.07-37.1-333.87h0c0-.25-.07-.49-.1-.74h0v0c-2.48-18.09-4.93-36.26-7.33-54.4-14.54-110-22.1-199-25.93-266.38-.17-3.11-.34-6.16-.5-9.17q-.37-7-.7-13.76c-.94-19.66-1.55-37.15-1.93-52.47q-.18-7.27-.3-13.88c-.76-43.83.45-66.06.45-66.06l80.43,18.67h0L1504,719.4l2.16,85.46.56,22.5.46,18,2.25,89Z"/><path class="cls-4" d="M1324.85,1147.35l-2.7-.35c.15-1.18,15.18-119.21,26.52-161.59,11.44-42.77,64.08-79.68,64.61-80l1.55,2.24c-.52.36-52.35,36.71-63.53,78.51C1340,1028.32,1325,1146.16,1324.85,1147.35Z"/><path class="cls-1" d="M1325.63,226.42l-13.7-43.09-4-12.54L1284.49,97l-3.09,73.37-1.84,44-.59,13.94c-.4,9.46-6.32,11.45-13.52,19.67-2.92,3.33-21.6,23.53-.4,32.66,26.41,11.37,75.78-5.85,94.55-28.4C1359.45,252.28,1330.06,240.35,1325.63,226.42Z"/><ellipse class="cls-1" cx="1288.06" cy="124.56" rx="79.08" ry="67.24" transform="translate(970.59 1379.08) rotate(-81.32)"/><path class="cls-4" d="M1250.18,97c-38.46,1.4-57.12-20.22-57.56-40.24-.57-25.67,16-48.42,35.34-38.87s11-13.86,29.61-16.35c34.72-4.64,41.23,19.42,69.64,20.59,37.48,1.54,80.21,62.38,48.8,106.79C1376,129,1280.56,95.92,1250.18,97Z"/><path class="cls-4" d="M1215.93,71.14s41.1,38.55,35.68,60.24-4,30.19,20,41.76,2.8,30.37,34.79,31.73,71.18-35.48,71.17-96c0-33.75-19.91-55.84-19.91-55.84Z"/><path class="cls-1" d="M1230.86,130.42c4.66-6.43,13.22-8.37,19.13-4.31s6.91,12.56,2.26,19-13.22,8.37-19.13,4.31S1226.21,136.86,1230.86,130.42Z"/><path class="cls-4" d="M1391.43,145.62a1,1,0,0,1-1-.76c-1.87-8.18-9.86-12.84-9.94-12.89a1,1,0,0,1,1-1.69c.36.2,8.82,5.14,10.88,14.15a1,1,0,0,1-.74,1.17Z"/><path class="cls-4" d="M1381,127.41a1,1,0,0,1-1-.92,1,1,0,0,1,.92-1c.1,0,10.49-.74,12-8.57a1,1,0,1,1,1.92.37c-1.77,9.33-13.3,10.13-13.79,10.15Z"/><path class="cls-4" d="M1233.79,16.39a7.39,7.39,0,0,1-2.08-.31,27.55,27.55,0,0,1-7.89-4.09c-4.27-2.89-8-5.39-16-2.86a1,1,0,0,1-.58-1.87c8.92-2.81,13.37.2,17.67,3.11a25.71,25.71,0,0,0,7.33,3.83,4.52,4.52,0,0,0,4-.54c4.29-2.91,5.31-12.68,5.32-12.78a1,1,0,0,1,1.07-.88,1,1,0,0,1,.88,1.07c0,.44-1.12,10.78-6.17,14.2A6.21,6.21,0,0,1,1233.79,16.39Z"/><path class="cls-4" d="M1324.28,19c-13.61,0-24.19-9.62-24.68-10.07a1,1,0,0,1,1.32-1.44c.13.12,12.74,11.54,27.43,9.24a1,1,0,0,1,1.12.81,1,1,0,0,1-.81,1.12A28.67,28.67,0,0,1,1324.28,19Z"/><path class="cls-4" d="M1241.15,152.23a9.32,9.32,0,0,1-2.65-.34.47.47,0,0,1,.29-.89c.36.12,8.69,2.7,14.58-8.75a.47.47,0,0,1,.64-.2.47.47,0,0,1,.2.63C1250,150.87,1244.4,152.23,1241.15,152.23Z"/><path class="cls-4" d="M1095.77,827.9s279-16,411.42,17.5l2-39.61L1323.5,748.11,1173.61,752l-46,10.31-32.49,52.65Z"/><path class="cls-2" d="M1482.42,345.51s-24.56-110.8-174.78-110.79c-261.78,0-188.35,224-212.57,580.22,0,0,168.77-38.38,413,12.69,0,0,23.77-192.89-6.94-355.95C1493,428.62,1494.48,382.94,1482.42,345.51Z"/><path class="cls-4" d="M1102,600.05l-1-1.6c49.35-30.54,113.56-111,114.21-111.81l1.47,1.17C1216,488.62,1151.61,569.34,1102,600.05Z"/><path class="cls-4" d="M1514.17,595.06c-1.1-27.07-18.34-192.49-18.51-194.16l1.87-.19c.18,1.67,17.42,167.14,18.53,194.28Z"/><path class="cls-1" d="M1362.07,750.94c11.93-11.69-37.88-21-37.88-21s46.08,9.59,57.5.86c9.1-7-32.63-22-47.15-26.56,0-.13.09-.26.13-.39,14.57,3.22,59.88,13.6,66.39,4.18,7.38-10.68-51.54-25.75-60.38-27.8a.77.77,0,0,1,0-.15c98,12.54,31.77-19.27-9.83-28.06,7.28-5.54,21-18.86,18.13-23.68-3.27-5.55-23.83,1.47-29.77,4-13.7,5.75-43.19,11.58-56.78,17.6-5.89,2.61-11.63,66.2-11.63,66.2s16.43,11.74,44.78,22.62a24.34,24.34,0,0,0,5.23,2.22c2.39.72,5.57,1.73,9.18,2.86h0C1327.38,749.23,1355.34,757.53,1362.07,750.94Z"/><path class="cls-1" d="M126.32,741c-11.93-11.68,37.88-21,37.88-21s-46.08,9.58-57.5.85c-9.1-7,32.63-22,47.15-26.55l-.13-.4c-14.57,3.22-59.88,13.6-66.39,4.18-7.38-10.67,51.54-25.75,60.38-27.8,0,0,0-.1,0-.15-98,12.54-31.77-19.27,9.82-28-7.27-5.55-21-18.86-18.12-23.69,3.27-5.55,23.83,1.47,29.77,4,13.7,5.76,43.19,11.59,56.78,17.6,5.89,2.61,11.63,66.2,11.63,66.2s-16.43,11.74-44.79,22.62a24,24,0,0,1-5.22,2.23c-2.39.71-5.57,1.72-9.18,2.85l0,0h0C161,739.29,133.05,747.58,126.32,741Z"/><path class="cls-5" d="M1024.67,901c-4,66.25-11.51,152.24-25.42,257.42-10.08,76.24-21,231.82-31.48,302.67l-6.61-.34c-29.15-1.48-60.79-2.62-94.49-3.48l-20.49-.49q-27.21-.59-56-.94l6.66-236.33h0l0-1.15v0s0-.06,0-.1L806.05,1002l2.63-104s0,0,0,0c.39-.19,8.73-4.15,21.94-9.66,9.93-4.15,22.61-9.19,36.72-14.18,47.93-16.93,112.39-33.33,141.72-12.57,7.54,5.32,12.75,13.1,14.77,23.92v0c.15.72.28,1.46.38,2.21A66.48,66.48,0,0,1,1024.67,901Z"/><path class="cls-5" d="M833.26,822.12q-.56,23-1.92,52.48-.33,6.71-.71,13.76c-.15,3-.33,6.07-.5,9.17-3.82,67.39-11.38,156.4-25.93,266.38q-3.6,27.16-7.31,54.3s0,.06,0,.1c0,.24-.06.49-.11.72,0,0,0,0,0,0-7.36,53.78-15,186.08-22.45,236.58-47.59-.5-98-.58-150.35-.36l-28.61.15L611,1007.49l2.26-89v-.08l.45-18,.58-22.49v0l2.16-85.44,179.18-41.59h0l37.48-8.7s.19,3.44.38,10.29C833.8,764.79,834.1,788.07,833.26,822.12Z"/><path class="cls-4" d="M795.58,1220.42c-.15-1.19-15.16-119-26.45-161.23-11.18-41.8-63-78.15-63.53-78.51l1.55-2.24c.53.36,53.18,37.28,64.61,80,11.34,42.38,26.37,160.41,26.52,161.59Z"/><path class="cls-1" d="M794.8,299.49l13.71-43.09,4-12.54,23.45-73.76L839,243.47l1.85,44,.58,13.94c.4,9.46,6.32,11.45,13.52,19.67,2.92,3.33,21.6,23.54.4,32.66-26.41,11.37-75.78-5.85-94.55-28.4C761,325.35,790.37,313.42,794.8,299.49Z"/><ellipse class="cls-1" cx="832.37" cy="197.63" rx="67.24" ry="79.08" transform="translate(-20.29 127.85) rotate(-8.68)"/><path class="cls-4" d="M1024.66,901s-279-16-411.41,17.5l-2-39.61,185.65-57.67,149.9,3.86,46,10.31,32.5,52.65Z"/><path class="cls-6" d="M638,418.58s24.56-110.8,174.78-110.79c261.78,0,188.35,224,212.58,580.22,0,0-168.78-38.38-413,12.69,0,0-23.77-192.89,6.95-356C627.42,501.69,626,456,638,418.58Z"/><path class="cls-6" d="M842.24,308.88s89.12-4,147.12,62c36,41,88.84,196.71,131.32,211.53l151.93,56.22s30,55.11-18.64,94.14c0,0-138.25,41.28-275.59-14.81-13.45-5.49-62.48-76.83-62.48-76.83Z"/><path class="cls-6" d="M764.55,312.47s-84,1.28-146.44,63.13c-22.86,22.64-57.32,61-84.94,92.32A261.69,261.69,0,0,1,423,542L216.39,629s-28,49.17,20.58,88.2c0,0,223.7,10.58,361-45.51,13.44-5.49,20.1-14,20.1-14Z"/><path class="cls-4" d="M606.26,668.13l-1.89-.07c1.11-27.14,18.35-192.61,18.53-194.28l1.87.19C624.6,475.64,607.36,641.06,606.26,668.13Z"/><path class="cls-4" d="M874.21,92.48c-26.21-11.79-82.63-35.43-123.86,7-54.46,56.12-17.7,142.65-76,160.14S574,326.3,614.58,364.62s-40,139.43,118,150.61S864,412.93,866.64,374.62s87.58-8.33,85.91-53.31-106.74-71.83-82.1-122.13S914.87,110.76,874.21,92.48Z"/><path class="cls-1" d="M889.57,203.5c-4.66-6.44-13.22-8.37-19.12-4.32s-6.92,12.56-2.26,19,13.22,8.37,19.12,4.31S894.23,209.93,889.57,203.5Z"/><path class="cls-4" d="M879.28,225.3c-3.25,0-8.84-1.36-13.06-9.55a.47.47,0,0,1,.84-.43c5.91,11.49,14.49,8.78,14.58,8.75a.47.47,0,0,1,.59.3.46.46,0,0,1-.29.59A9.36,9.36,0,0,1,879.28,225.3Z"/><path class="cls-4" d="M874.21,92.48s26.7,5.1,38.36,36.16,4.08,55.84-38.36,56.79S874.21,92.48,874.21,92.48Z"/><path class="cls-4" d="M700.77,241.74l-1.49-2c10-7.35,10.41-28.89,10.91-53.85.73-36.42,1.64-81.76,34.31-101.36C798.66,52,866.59,91,867.27,91.4L866,93.56c-.67-.39-67.35-38.63-120.22-6.91-31.49,18.89-32.38,63.46-33.1,99.27C712.17,211.54,711.73,233.65,700.77,241.74Z"/><path class="cls-4" d="M836.58,490.15,835.3,488c.48-.29,47.56-28.84,42.34-76.6-3.13-28.62,10.92-30.79,30.37-33.8,15.32-2.37,34.38-5.31,52.88-21.8,6.88-6.13,9.9-13.31,9-21.32-4-34.63-78.48-75.39-79.23-75.8l1.19-2.19a345,345,0,0,1,38.54,25.09c26.1,19.76,40.22,37.46,42,52.61,1,8.87-2.26,16.77-9.79,23.47-19,17-38.52,20-54.16,22.41-19.42,3-31.14,4.82-28.27,31.06C885.52,460.5,837.07,489.85,836.58,490.15Z"/><path class="cls-1" d="M690.26,552.7c-2.93-16.45,43,4.9,43,4.9s-43.08-19-47.31-32.7c-3.37-10.95,39.35,1,53.81,5.77l.12-.4c-13.73-5.84-56.64-23.7-56.47-35.15.19-13,56.92,9,65.3,12.43l.07-.13c-87.1-46.74-14.67-34.13,24.29-17.13-2.7-8.74-6.12-27.54-1-29.81,5.89-2.62,18.55,15,21.94,20.51,7.81,12.65,28.43,34.52,36,47.31,3.28,5.54.23,60.64.23,60.64s-49.41,0-78.8-7.59a24.53,24.53,0,0,1-5.55-1.23c-2.36-.8-5.54-1.83-9.14-3h0C719.49,571.45,691.91,562,690.26,552.7Z"/><path class="cls-2" d="M1278.19,235.81s-97.62,9.74-134.87,63.46c-18.33,26.45-57.55,86.93-85.17,118.28-29.74,33.76-67.26,44.32-109.74,59.14L817.56,511.26s-14,63.85,2.58,88c0,0,156.55,43.84,292.78-14.9,32.36-14,197.83-160.13,197.83-160.13Z"/><path class="cls-4" d="M1020.06,733c-33.11-6.86-57.28-28.81-57.52-29l.85-.92c.23.22,24.16,21.94,56.92,28.73Z"/><path class="cls-1" d="M863.45,745.45c8.48-14.39-42-10.42-42-10.42s47-2.73,55.75-14.13c7-9.09-37.23-12.76-52.44-13.37l0-.42c14.9-.68,61.35-2.45,65.18-13.24,4.35-12.22-56.46-11.45-65.53-11.13,0,0,0-.1,0-.15,97.94-13.4,25.66-26.87-16.78-24.53,5.58-7.25,15.34-23.67,11.34-27.59-4.61-4.5-22.63,7.62-27.72,11.57-11.73,9.12-38.69,22.42-50.25,31.77-5,4.05-21.38,56.75-21.38,56.75s46.3,17.25,76.5,20.38a24.18,24.18,0,0,0,5.63.79c2.49.07,5.83.22,9.61.37h0C829.51,752.83,858.66,753.56,863.45,745.45Z"/><path class="cls-2" d="M312.78,269.55s106,4.74,164.29,87.2C495.65,383,546.55,511.86,581.19,540.57L758.62,662.2s-9.15,64.73-33.13,81.56c0,0-180.82-26.2-288-128.79C412,590.6,326.81,408.51,326.81,408.51Z"/><path class="cls-1" d="M1964.15,1004c-13.26,7.82-9.61-38.75-9.61-38.75s-2.51,43.32-13,51.39c-8.37,6.43-11.76-34.32-12.33-48.34l-.39,0c-.63,13.74-2.24,56.55-12.19,60.09-11.27,4-10.56-52.05-10.27-60.4l-.14,0c-12.34,90.28-24.76,23.66-22.62-15.47-6.67,5.15-21.81,14.15-25.42,10.46-4.16-4.24,7-20.86,10.66-25.55,8.4-10.82,20.66-35.67,29.27-46.32,3.73-4.62,61.71,5.51,61.71,5.51s6.51,17.44,9.4,45.28a22.78,22.78,0,0,1,.73,5.19c.06,2.3.2,5.37.34,8.86v0h0C1971,972.72,1971.63,999.59,1964.15,1004Z"/><path class="cls-5" d="M1782.48,339.13s157.09-8.31,188.18,158.78c19.91,107,10.19,382.11,3.29,402.32s-84.08,19.52-101.64,0S1782.48,339.13,1782.48,339.13Z"/><path class="cls-6" d="M1752.84,1491.34c-32.89-.24-67-.77-102.51-1.54h0c-16.32-.37-32.91-.77-49.86-1.24-14.89-95.2-33.39-297.59-49.61-420.18-12.83-97-19.77-176.21-23.43-237.3a60.78,60.78,0,0,1,.42-12.18c.1-.7.21-1.36.33-2v0c1.88-10,6.67-17.14,13.61-22h0c27-19.15,86.45-4,130.63,11.58,13,4.6,24.7,9.25,33.86,13.07,12.46,5.21,20.23,8.9,20.23,8.9l2.42,95.83,8.45,199.32v0l.05,1.14h0Z"/><path class="cls-6" d="M1935.49,1489.63c-1.76.07-3.52.12-5.3.17q-26,.72-53,1.15c-28.67.46-58.17.63-88.67.58h-7.3c-12.57-80.14-31.07-274.31-43.79-367.24,0,0,0,0,0,0,0-.25-.07-.48-.11-.72v0q-3.42-25-6.74-50c-13.4-101.37-20.37-183.42-23.9-245.54q-.24-4.29-.46-8.46-.36-6.48-.64-12.67c-.87-18.13-1.43-34.27-1.78-48.39-1.22-48.86.13-73.68.13-73.68l132.41,30.73,67.32,15.63,2,78.76.53,20.74v0l.42,16.61,1.08,42.75.61,23.92.39,15.4,4.14,98Z"/><path class="cls-4" d="M1738.58,1125.54l-2.5-.31c.14-1.1,14-109.89,24.45-149,10.54-39.43,59.07-73.45,59.56-73.79l1.43,2.07c-.48.33-48.26,33.84-58.56,72.37C1752.55,1015.83,1738.71,1124.45,1738.58,1125.54Z"/><path class="cls-4" d="M1527.41,831.09s257.19-14.74,379.23,16.12l1.82-36.5-171.13-53.17-138.17,3.56-42.44,9.51-30,48.53Z"/><path class="cls-5" d="M1883.82,386.43s-12.73-54.94-151.2-54.93c-241.31,0-183.53,159.33-205.85,487.64,0,0,155.57-35.38,380.69,11.7,0,0,21.91-177.8-6.4-328.11C1893.58,463,1894.94,420.94,1883.82,386.43Z"/><path class="cls-4" d="M1908.33,830.93l-1.73-.17c18.74-194.35-6.14-326.55-6.39-327.87l1.7-.32C1902.17,503.88,1927.1,636.33,1908.33,830.93Z"/><path class="cls-1" d="M1994.11,667.92c11.93-11.68-37.88-21-37.88-21s46.09,9.58,57.51.85c9.1-7-32.64-22-47.16-26.55,0-.14.09-.27.13-.4,14.58,3.22,59.88,13.6,66.39,4.18,7.38-10.67-51.54-25.75-60.38-27.8a.77.77,0,0,0,0-.15c98,12.54,31.77-19.27-9.82-28,7.27-5.55,21-18.86,18.12-23.69-3.27-5.55-23.83,1.47-29.77,4-13.7,5.76-43.19,11.58-56.78,17.6-5.89,2.61-11.63,66.2-11.63,66.2s16.44,11.74,44.79,22.62a24.25,24.25,0,0,0,5.22,2.22c2.39.72,5.57,1.73,9.19,2.86h0C1959.42,666.22,1987.38,674.51,1994.11,667.92Z"/><path class="cls-2" d="M1355.89,239.4s84,1.28,146.43,63.12c22.87,22.65,57.32,61,84.94,92.33a261.75,261.75,0,0,0,110.15,74.08l206.63,87s28,49.17-20.58,88.2c0,0-223.69,10.58-361-45.51-13.44-5.49-20.1-14-20.1-14Z"/><rect class="cls-4" x="386.1" y="473.41" width="1.25" height="80.69" transform="translate(-132.34 134.18) rotate(-16.85)"/><path class="cls-4" d="M1514.49,595.05c-1.43-40-18.34-153.68-18.51-154.83l1.23-.18c.17,1.14,17.1,114.91,18.53,155Z"/><path class="cls-1" d="M1141.05,295.47c2.89-15.12,23.64,7.33,23.64,7.33s-17.23-18.68-16.35-31.9c.7-10.53,19.9,2,30.81,10.85l.23-.31c-9.9-9.55-23.05-22.23-19.14-32,4.44-11.11,28.13,9.64,34.21,15.38l.11-.09c-20.78-26.48-1.41-34.22,26.55-6.76.55-8.41,3.79-25.73,8.94-26,5.93-.32,11,19,12.14,24.88,2.58,13.46,13.14,39.07,15.45,52.57,1,5.86-44.9,42.69-44.9,42.69s-17.39-6.63-40.21-22.85a22.54,22.54,0,0,1-4.37-2.87c-1.77-1.48-4.17-3.4-6.88-5.6l0,0h0C1148.25,310.19,1139.42,304,1141.05,295.47Z"/><path class="cls-5" d="M1779.26,292s-35.67-21.3-123.13,23.67c-55,28.31-173,91.12-227.07,66.56-52.89-24-174.54-85.18-174.54-85.18s-59.88,12.24-57.57,59.84c0,0,69.48,120.71,196.4,171.6,72.26,29,306.2-87.88,296-93.7Z"/><ellipse class="cls-1" cx="1705.96" cy="220.01" rx="72.89" ry="61.98" transform="translate(1231.07 1873.24) rotate(-81.32)"/><path class="cls-1" d="M1653.24,225.41c4.29-5.93,12.18-7.71,17.62-4s6.38,11.58,2.08,17.51-12.18,7.71-17.62,4S1648.94,231.35,1653.24,225.41Z"/><path class="cls-4" d="M1662.72,245.51a8.71,8.71,0,0,1-2.45-.31.42.42,0,0,1-.27-.54.42.42,0,0,1,.54-.28c.33.11,8,2.49,13.44-8.07a.44.44,0,0,1,.59-.18.43.43,0,0,1,.18.58C1670.87,244.26,1665.71,245.51,1662.72,245.51Z"/><path class="cls-4" d="M1667.39,123.08s-24.61,4.7-35.36,33.34-3.76,51.47,35.36,52.34S1667.39,123.08,1667.39,123.08Z"/><path class="cls-4" d="M1667.39,123.08s38.46-51.91,104.51-27.34,62,117.24,95.87,140.77,45.17,71.91,0,71.91-36.49,23.26-85.29,30.71-75.9-17.66-108.11-4.61-52.94-22.26-23.76-46.83,38.17-61.45,9.8-96.36S1667.39,123.08,1667.39,123.08Z"/></g></g></svg>