<svg xmlns="http://www.w3.org/2000/svg" viewBox="0 0 480 450">
    <defs>
        <style>
            .cls-1{isolation:isolate;}.cls-2{fill:#fff;}.cls-3{fill:#a9d6ff;}.cls-4{fill:#fff454;}.cls-5{fill:#a0d859;}.cls-6{fill:#ff8a9d;}.cls-7{fill:#d9edff;}.cls-8{fill:#ffaf40;}.cls-9{fill:#ff6d40;}.cls-10{fill:#ffc640;}.cls-11{fill:#948e31;}.cls-12{fill:#378fe9;}.cls-13{fill:#fad3aa;}.cls-14{fill:#333;}.cls-15{fill:#56aa39;}.cls-16{fill:#272262;}.cls-17{fill:#d9d9d9;}.cls-18{fill:#aeaeae;}.cls-19{fill:#999;}.cls-20{fill:#26262e;}.cls-21{fill:url(#Áåçûìÿííûé_ãðàäèåíò_14);}.cls-22{fill:#4367c7;}.cls-23{fill:#4d4d4d;}.cls-23,.cls-27,.cls-28{mix-blend-mode:screen;}.cls-24{fill:#a8a8a8;mix-blend-mode:multiply;}.cls-25{fill:#7395f0;}.cls-26{fill:#fcaa2d;}.cls-27{fill:#856b37;}.cls-28{fill:#303030;}.cls-29{fill:#f2f2f2;}.cls-30{fill:#e6e6e6;}.cls-31{fill:#6fbc3c;}.cls-32{fill:#2c52b8;}.cls-33{fill:#fff642;}.cls-34{fill:#fc912d;}.cls-35{fill:#ffe042;}.cls-36{fill:#ade061;}.cls-37{fill:#ffb78c;}.cls-38{fill:#262626;}.cls-39{fill:#636363;}.cls-40{fill:#ff5c77;}.cls-41{fill:#ffe5cc;}
        </style>
        <linearGradient id="Áåçûìÿííûé_ãðàäèåíò_14" x1="249.67" y1="136.37" x2="250.11" y2="197.01"
                        gradientUnits="userSpaceOnUse">
            <stop offset="0" stop-color="#a9d6ff"/>
            <stop offset="1" stop-color="#dbeeff"/>
        </linearGradient>
    </defs>
    <g class="cls-1">
        <g id="Layer">
            <rect class="cls-2" width="480" height="450"/>
            <path class="cls-3" d="M480,0V101.33a82.83,82.83,0,0,1-15.13,1.39A82.49,82.49,0,0,1,384.94,0Z"/>
            <path class="cls-4" d="M480,403.9V450H433.9A46.1,46.1,0,0,1,480,403.9Z"/>
            <circle class="cls-4" cx="33.63" cy="419.43" r="14.1" transform="translate(-385.83 386.11) rotate(-80.87)"/>
            <circle class="cls-4" cx="455.18" cy="127.53" r="7.83" transform="translate(-14.04 184.83) rotate(-22.61)"/>
            <circle class="cls-5" cx="78.95" cy="35.12" r="14.1"/>
            <path class="cls-3" d="M79.54,69.61a6.21,6.21,0,1,1-6.21-6.21A6.21,6.21,0,0,1,79.54,69.61Z"/>
            <circle class="cls-5" cx="51.13" cy="392.99" r="5.88"/>
            <path class="cls-6" d="M66.22,0A82.5,82.5,0,0,1,0,49.18V0Z"/>
            <polygon class="cls-7"
                     points="305.6 203.05 309.42 214.23 327.47 218.8 310.29 224.31 308.44 235.65 294.02 227.87 274.81 230.32 283.09 220 273.07 210.17 292.6 211.57 305.6 203.05"/>
            <polygon class="cls-7"
                     points="392.16 234.22 385.89 245.01 397.7 254.15 378.04 253.99 366.75 263.3 360.84 252.42 342.05 249.03 358.06 242.46 357.73 231.07 373.54 237.88 392.16 234.22"/>
            <polygon class="cls-7"
                     points="441.08 286.74 426.34 294.25 428.7 305.57 411.76 299.74 393.92 304.51 398.19 293.39 384.81 285.02 404.41 283.98 413.98 274.04 421.79 284.51 441.08 286.74"/>
            <polygon class="cls-7"
                     points="425.62 327.47 423.35 338.79 438.16 346.31 418.88 348.53 411.15 358.99 401.51 349.05 381.9 347.99 395.23 339.62 390.85 328.51 408.72 333.29 425.62 327.47"/>
            <polygon class="cls-7"
                     points="389.56 377.03 377.81 386.14 384.16 396.95 365.52 393.27 349.78 400.07 350 388.67 333.92 382.08 352.68 378.71 358.5 367.84 369.88 377.16 389.56 377.03"/>
            <polygon class="cls-7"
                     points="296.47 392.45 298.28 403.8 315.46 409.4 297.4 413.87 293.58 425.04 280.58 416.46 261.05 417.78 271.07 407.99 262.83 397.63 282.02 400.17 296.47 392.45"/>
            <polygon class="cls-7"
                     points="221.38 395.74 213.16 406.08 223.23 415.88 203.68 414.52 190.73 423.06 186.87 411.89 168.79 407.36 185.93 401.81 187.75 390.47 202.2 398.22 221.38 395.74"/>
            <polygon class="cls-7"
                     points="146.44 225.78 146.18 237.16 162.22 243.79 143.42 247.12 137.57 257.99 126.22 248.66 106.56 248.75 118.35 239.65 112.05 228.84 130.67 232.54 146.44 225.78"/>
            <polygon class="cls-7"
                     points="114.06 277.8 100.7 286.14 105.02 297.25 87.15 292.45 70.24 298.24 72.56 286.93 57.78 279.37 77.07 277.2 84.87 266.74 94.46 276.71 114.06 277.8"/>
            <polygon class="cls-7"
                     points="101.82 321.26 97.47 332.37 110.83 340.77 91.23 341.77 81.62 351.69 73.85 341.2 54.55 338.94 69.33 331.46 67.05 320.13 83.95 325.99 101.82 321.26"/>
            <polygon class="cls-7"
                     points="128.78 362.51 134.63 373.4 153.43 376.81 137.37 383.36 137.62 394.76 121.84 387.91 103.23 391.55 109.54 380.75 97.77 371.61 117.45 371.79 128.78 362.51"/>
            <polygon class="cls-7"
                     points="235.26 208.21 225.18 217.98 233.39 228.36 214.2 225.78 199.74 233.48 197.95 222.13 180.81 216.51 198.9 212.06 202.78 200.89 215.72 209.5 235.26 208.21"/>
            <g class="cls-1">
                <polygon class="cls-8" points="272.48 209.98 272.45 220 262.43 210.17 262.46 200.15 272.48 209.98"/>
                <polygon class="cls-8" points="316.86 208.78 316.83 218.8 299.65 224.31 299.68 214.29 316.86 208.78"/>
                <polygon class="cls-9" points="283.42 217.85 283.39 227.87 264.17 230.32 264.2 220.3 283.42 217.85"/>
                <polygon class="cls-8" points="297.84 225.63 297.81 235.65 283.39 227.87 283.42 217.85 297.84 225.63"/>
                <polygon class="cls-9" points="299.68 214.29 299.65 224.31 297.81 235.65 297.84 225.63 299.68 214.29"/>
                <polygon class="cls-4"
                         points="294.99 193.03 298.81 204.21 316.86 208.78 299.68 214.29 297.84 225.63 283.42 217.85 264.2 220.3 272.48 209.98 262.46 200.15 281.99 201.55 294.99 193.03"/>
            </g>
            <g class="cls-1">
                <polygon class="cls-9" points="347.45 232.44 347.42 242.46 347.09 231.07 347.12 221.05 347.45 232.44"/>
                <polygon class="cls-9" points="381.55 224.2 381.52 234.22 375.25 245.01 375.28 234.99 381.55 224.2"/>
                <polygon class="cls-8" points="350.23 242.41 350.2 252.42 331.41 249.03 331.44 239.02 350.23 242.41"/>
                <polygon class="cls-8" points="387.09 244.13 387.07 254.15 367.4 253.99 367.43 243.97 387.09 244.13"/>
                <polygon class="cls-10" points="356.14 253.28 356.11 263.3 350.2 252.42 350.23 242.41 356.14 253.28"/>
                <polygon class="cls-9" points="367.43 243.97 367.4 253.99 356.11 263.3 356.14 253.28 367.43 243.97"/>
                <polygon class="cls-4"
                         points="381.55 224.2 375.28 234.99 387.09 244.13 367.43 243.97 356.14 253.28 350.23 242.41 331.44 239.02 347.45 232.44 347.12 221.05 362.93 227.86 381.55 224.2"/>
            </g>
            <g class="cls-1">
                <polygon class="cls-8" points="387.58 283.37 387.55 293.39 374.18 285.02 374.2 275 387.58 283.37"/>
                <polygon class="cls-9" points="430.47 276.72 430.44 286.74 415.7 294.25 415.73 284.23 430.47 276.72"/>
                <polygon class="cls-9" points="401.15 289.72 401.12 299.74 383.28 304.51 383.31 294.49 401.15 289.72"/>
                <polygon class="cls-8" points="418.09 295.55 418.06 305.57 401.12 299.74 401.15 289.72 418.09 295.55"/>
                <polygon class="cls-4"
                         points="430.47 276.72 415.73 284.23 418.09 295.55 401.15 289.72 383.31 294.49 387.58 283.37 374.2 275 393.8 273.96 403.37 264.02 411.19 274.49 430.47 276.72"/>
            </g>
            <g class="cls-1">
                <polygon class="cls-9" points="415.01 317.45 414.98 327.47 412.71 338.79 412.74 328.77 415.01 317.45"/>
                <polygon class="cls-8" points="384.62 329.6 384.59 339.62 380.21 328.51 380.24 318.49 384.62 329.6"/>
                <polygon class="cls-10" points="427.55 336.29 427.52 346.31 408.25 348.53 408.27 338.51 427.55 336.29"/>
                <polygon class="cls-8" points="390.9 339.03 390.87 349.05 371.26 347.99 371.29 337.97 390.9 339.03"/>
                <polygon class="cls-10" points="400.54 348.97 400.51 358.99 390.87 349.05 390.9 339.03 400.54 348.97"/>
                <polygon class="cls-9" points="408.27 338.51 408.25 348.53 400.51 358.99 400.54 348.97 408.27 338.51"/>
                <polygon class="cls-4"
                         points="415.01 317.45 412.74 328.77 427.55 336.29 408.27 338.51 400.54 348.97 390.9 339.03 371.29 337.97 384.62 329.6 380.24 318.49 398.12 323.27 415.01 317.45"/>
            </g>
            <g class="cls-1">
                <polygon class="cls-9" points="378.95 367.01 378.92 377.03 367.17 386.14 367.2 376.13 378.95 367.01"/>
                <polygon class="cls-8" points="339.39 378.65 339.36 388.67 323.29 382.08 323.31 372.07 339.39 378.65"/>
                <polygon class="cls-8" points="373.55 386.93 373.52 396.95 354.89 393.27 354.92 383.25 373.55 386.93"/>
                <polygon class="cls-9" points="354.92 383.25 354.89 393.27 339.14 400.07 339.17 390.05 354.92 383.25"/>
                <polygon class="cls-4"
                         points="378.95 367.01 367.2 376.13 373.55 386.93 354.92 383.25 339.17 390.05 339.39 378.65 323.31 372.07 342.07 368.69 347.89 357.82 359.27 367.14 378.95 367.01"/>
            </g>
            <g class="cls-1">
                <polygon class="cls-10" points="260.46 397.97 260.43 407.99 252.19 397.63 252.22 387.62 260.46 397.97"/>
                <polygon class="cls-8" points="304.85 399.38 304.82 409.4 286.76 413.87 286.79 403.85 304.85 399.38"/>
                <polygon class="cls-8" points="269.98 406.44 269.95 416.46 250.41 417.78 250.44 407.76 269.98 406.44"/>
                <polygon class="cls-10" points="282.98 415.02 282.95 425.04 269.95 416.46 269.98 406.44 282.98 415.02"/>
                <polygon class="cls-9" points="286.79 403.85 286.76 413.87 282.95 425.04 282.98 415.02 286.79 403.85"/>
                <polygon class="cls-4"
                         points="285.86 382.43 287.68 393.78 304.85 399.38 286.79 403.85 282.98 415.02 269.98 406.44 250.44 407.76 260.46 397.97 252.22 387.62 271.42 390.15 285.86 382.43"/>
            </g>
            <g class="cls-1">
                <polygon class="cls-9" points="210.77 385.72 210.74 395.74 202.53 406.08 202.55 396.06 210.77 385.72"/>
                <polygon class="cls-8" points="176.26 401.87 176.23 411.89 158.15 407.36 158.18 397.34 176.26 401.87"/>
                <polygon class="cls-8" points="212.62 405.87 212.59 415.88 193.05 414.52 193.07 404.5 212.62 405.87"/>
                <polygon class="cls-10" points="180.12 413.04 180.09 423.06 176.23 411.89 176.26 401.87 180.12 413.04"/>
                <polygon class="cls-9" points="193.07 404.5 193.05 414.52 180.09 423.06 180.12 413.04 193.07 404.5"/>
                <polygon class="cls-4"
                         points="210.77 385.72 202.55 396.06 212.62 405.87 193.07 404.5 180.12 413.04 176.26 401.87 158.18 397.34 175.32 391.79 177.14 380.45 191.59 388.2 210.77 385.72"/>
            </g>
            <g class="cls-1">
                <polygon class="cls-11" points="135.84 215.76 135.81 225.78 135.54 237.16 135.57 227.15 135.84 215.76"/>
                <polygon class="cls-10" points="107.74 229.63 107.71 239.65 101.41 228.84 101.44 218.82 107.74 229.63"/>
                <polygon class="cls-8" points="151.61 233.77 151.58 243.79 132.78 247.12 132.81 237.1 151.61 233.77"/>
                <polygon class="cls-8" points="115.61 238.64 115.58 248.66 95.92 248.75 95.95 238.74 115.61 238.64"/>
                <polygon class="cls-10" points="126.96 247.97 126.93 257.99 115.58 248.66 115.61 238.64 126.96 247.97"/>
                <polygon class="cls-9" points="132.81 237.1 132.78 247.12 126.93 257.99 126.96 247.97 132.81 237.1"/>
                <polygon class="cls-4"
                         points="135.84 215.76 135.57 227.15 151.61 233.77 132.81 237.1 126.96 247.97 115.61 238.64 95.95 238.74 107.74 229.63 101.44 218.82 120.06 222.53 135.84 215.76"/>
            </g>
            <g class="cls-1">
                <polygon class="cls-9" points="103.45 267.78 103.42 277.8 90.06 286.14 90.09 276.12 103.45 267.78"/>
                <polygon class="cls-10" points="61.95 276.91 61.92 286.93 47.14 279.37 47.17 269.36 61.95 276.91"/>
                <polygon class="cls-10" points="94.41 287.23 94.38 297.25 76.52 292.45 76.54 282.43 94.41 287.23"/>
                <polygon class="cls-9" points="76.54 282.43 76.52 292.45 59.61 298.24 59.63 288.22 76.54 282.43"/>
                <polygon class="cls-4"
                         points="103.45 267.78 90.09 276.12 94.41 287.23 76.54 282.43 59.63 288.22 61.95 276.91 47.17 269.36 66.46 267.18 74.26 256.72 83.86 266.69 103.45 267.78"/>
            </g>
            <g class="cls-1">
                <polygon class="cls-10" points="58.73 321.44 58.7 331.46 56.41 320.13 56.44 310.11 58.73 321.44"/>
                <polygon class="cls-9" points="91.21 311.24 91.18 321.26 86.83 332.37 86.86 322.35 91.21 311.24"/>
                <polygon class="cls-8" points="63.24 331.18 63.21 341.2 43.91 338.94 43.94 328.93 63.24 331.18"/>
                <polygon class="cls-10" points="100.22 330.75 100.19 340.76 80.59 341.77 80.62 331.75 100.22 330.75"/>
                <polygon class="cls-10" points="71.01 341.67 70.98 351.69 63.21 341.2 63.24 331.18 71.01 341.67"/>
                <polygon class="cls-9" points="80.62 331.75 80.59 341.77 70.98 351.69 71.01 341.67 80.62 331.75"/>
                <polygon class="cls-4"
                         points="91.21 311.24 86.86 322.35 100.22 330.75 80.62 331.75 71.01 341.67 63.24 331.18 43.94 328.93 58.73 321.44 56.44 310.11 73.34 315.97 91.21 311.24"/>
            </g>
            <g class="cls-1">
                <polygon class="cls-10" points="98.93 370.74 98.9 380.75 87.13 371.61 87.16 361.59 98.93 370.74"/>
                <polygon class="cls-9" points="142.82 366.79 142.79 376.81 126.73 383.36 126.76 373.35 142.82 366.79"/>
                <polygon class="cls-9" points="111.23 377.89 111.2 387.91 92.59 391.55 92.62 381.53 111.23 377.89"/>
                <polygon class="cls-10" points="127.01 384.74 126.98 394.76 111.2 387.91 111.23 377.89 127.01 384.74"/>
                <polygon class="cls-4"
                         points="118.18 352.49 124.03 363.39 142.82 366.79 126.76 373.35 127.01 384.74 111.23 377.89 92.62 381.53 98.93 370.74 87.16 361.59 106.84 361.77 118.18 352.49"/>
            </g>
            <g class="cls-1">
                <polygon class="cls-9" points="224.66 198.19 224.63 208.21 214.54 217.98 214.57 207.96 224.66 198.19"/>
                <polygon class="cls-8" points="187.34 212.11 187.32 222.13 170.17 216.51 170.2 206.5 187.34 212.11"/>
                <polygon class="cls-8" points="222.78 218.34 222.75 228.36 203.56 225.78 203.59 215.76 222.78 218.34"/>
                <polygon class="cls-10" points="189.13 223.46 189.1 233.48 187.32 222.13 187.34 212.11 189.13 223.46"/>
                <polygon class="cls-9" points="203.59 215.76 203.56 225.78 189.1 233.48 189.13 223.46 203.59 215.76"/>
                <polygon class="cls-4"
                         points="224.66 198.19 214.57 207.96 222.78 218.34 203.59 215.76 189.13 223.46 187.34 212.11 170.2 206.5 188.29 202.04 192.17 190.87 205.11 199.48 224.66 198.19"/>
            </g>
            <path class="cls-3"
                  d="M55.51,154.88l75.66-43.68a2.82,2.82,0,0,1,2.81-.26h0l2.25,1.09-.82,1h0a6.45,6.45,0,0,1,.17,1.53v44c0,3.23-2,7-4.38,8.38L55.51,210.57a3.84,3.84,0,0,1-.72.33v1.15l-2-1.18c-1-.5-1.64-1.77-1.64-3.61v-44C51.13,160,53.09,156.28,55.51,154.88Z"/>
            <path class="cls-12"
                  d="M57.64,211.8l75.66-43.68c2.42-1.4,4.38-5.15,4.38-8.38v-44c0-3.23-2-4.71-4.38-3.31L57.64,156.11c-2.42,1.39-4.38,5.15-4.38,8.38v44C53.26,211.71,55.22,213.2,57.64,211.8Z"/>
            <ellipse class="cls-2" cx="72.8" cy="181.16" rx="21.72" ry="12.54"
                     transform="matrix(0.5, -0.86, 0.86, 0.5, -120.34, 152.59)"/>
            <path class="cls-13"
                  d="M66.84,180.18c0,4.63,2.71,6.81,6,4.88S79,177.81,79,173.19s-2.71-6.8-6.06-4.87S66.84,175.56,66.84,180.18Z"/>
            <path class="cls-14"
                  d="M67.85,178.73l3.5-2a.76.76,0,0,0,.32-.62V176c0-.24-.14-.35-.32-.25l-3.5,2a.77.77,0,0,0-.33.62v.1C67.52,178.72,67.67,178.83,67.85,178.73Z"/>
            <path class="cls-14"
                  d="M74.36,175l3.5-2a.76.76,0,0,0,.32-.62v-.11c0-.24-.14-.35-.32-.25l-3.5,2a.77.77,0,0,0-.33.62v.1C74,175,74.18,175.07,74.36,175Z"/>
            <path class="cls-14"
                  d="M67.11,177.26,70,172a2.21,2.21,0,0,1,.81-.87l4.59-2.65a.73.73,0,0,1,.88,0l2.37,2.08a3.49,3.49,0,0,0-1.48-3.24,3.57,3.57,0,0,0-3.56.37l-1.49.86A11.08,11.08,0,0,0,67.11,177.26Z"/>
            <polygon class="cls-13" points="71.03 189.16 74.89 186.93 74.89 180.88 71.03 183.1 71.03 189.16"/>
            <path class="cls-5"
                  d="M63,200.48c2.62,1.07,6,.65,9.77-1.5a30,30,0,0,0,9.78-9.79c-.28-4.31-3.53-5.95-7.49-3.66l-4.58,2.64A16.68,16.68,0,0,0,63,200.48Z"/>
            <polygon class="cls-13" points="74.89 185.65 72.96 190.97 71.03 187.88 74.89 185.65"/>
            <polygon class="cls-15"
                     points="71.03 187.88 72.96 190.97 74.89 185.65 76.44 187.72 72.96 198.88 69.48 191.74 71.03 187.88"/>
            <path class="cls-16"
                  d="M53.26,163.67v6.38l84.42-48.75v-6.37c0-2.78-2-3.9-4.38-2.5L57.64,156.11A9.67,9.67,0,0,0,53.26,163.67Z"/>
            <path class="cls-2"
                  d="M94.1,157.66,132,135.78a3.67,3.67,0,0,0,1.54-2.93v-.69c0-1.13-.69-1.65-1.54-1.16L94.1,152.88a3.66,3.66,0,0,0-1.53,2.93v.69C92.57,157.63,93.25,158.15,94.1,157.66Z"/>
            <path class="cls-2"
                  d="M94.1,166.59,132,144.71a3.67,3.67,0,0,0,1.54-2.93v-.69c0-1.13-.69-1.65-1.54-1.16L94.1,161.81a3.66,3.66,0,0,0-1.53,2.93v.69C92.57,166.56,93.25,167.08,94.1,166.59Z"/>
            <path class="cls-2"
                  d="M94.1,175.53,132,153.64a3.67,3.67,0,0,0,1.54-2.93V150c0-1.13-.69-1.65-1.54-1.16L94.1,170.74a3.68,3.68,0,0,0-1.53,2.94v.68C92.57,175.5,93.25,176,94.1,175.53Z"/>
            <path class="cls-2"
                  d="M94.1,184.46,132,162.58a3.69,3.69,0,0,0,1.54-2.94V159c0-1.13-.69-1.65-1.54-1.16L94.1,179.68a3.66,3.66,0,0,0-1.53,2.93v.69C92.57,184.43,93.25,185,94.1,184.46Z"/>
            <path class="cls-2"
                  d="M72.8,153.83c0,1.46,1,2,2.31,1.32a5.1,5.1,0,0,0,2.3-4c0-1.46-1-2-2.3-1.31A5.09,5.09,0,0,0,72.8,153.83Z"/>
            <path class="cls-2"
                  d="M67.4,157c0,1.45,1,2,2.3,1.31a5.08,5.08,0,0,0,2.3-4c0-1.46-1-2.05-2.3-1.32A5.1,5.1,0,0,0,67.4,157Z"/>
            <path class="cls-2"
                  d="M62,160.08c0,1.46,1,2,2.3,1.31a5.06,5.06,0,0,0,2.3-4c0-1.46-1-2-2.3-1.31A5.06,5.06,0,0,0,62,160.08Z"/>
            <path class="cls-2"
                  d="M56.58,163.2c0,1.46,1,2.05,2.3,1.31a5.06,5.06,0,0,0,2.3-4c0-1.46-1-2-2.3-1.31A5.06,5.06,0,0,0,56.58,163.2Z"/>
            <polygon class="cls-7"
                     points="289.54 239.84 361.23 281.23 361.23 302.48 324.45 323.71 297.62 323.71 269.32 239.84 289.54 239.84"/>
            <path class="cls-17"
                  d="M314.49,312.58l-.12.27c-5.11,12.5-18.61,10.74-18.61,10.74L297,311l-78-44.93c-5.71-3.29-10.34-12.13-10.34-19.74V49.08l-11.22-5s4.89-12.45,17.7-11.21a6.19,6.19,0,0,1,1,.13h.12a9.64,9.64,0,0,1,2.72,1.07l86,49.55c5.71,3.29,10.34,12.13,10.34,19.74V307.75a13.85,13.85,0,0,1-.76,4.74h0Z"/>
            <polygon class="cls-18" points="299.47 129.69 315.28 120.56 315.27 116.28 297.62 126.47 299.47 129.69"/>
            <path class="cls-19"
                  d="M293,90.58,207,41c-5.71-3.29-10.33.21-10.33,7.82V253.2c0,7.61,4.62,16.45,10.33,19.74l86,49.55c5.71,3.29,10.33-.21,10.33-7.82V110.32C303.29,102.71,298.67,93.87,293,90.58Z"/>
            <path d="M258,75.29,234.68,61.81c-.86-.5-1.57,0-1.57,1.18h0a3.79,3.79,0,0,0,1.57,3L258,79.48c.87.5,1.58,0,1.58-1.18h0A3.79,3.79,0,0,0,258,75.29Z"/>
            <path class="cls-20"
                  d="M267.67,83.15a3.48,3.48,0,0,0-1.58-2.72c-.87-.51-1.57-.1-1.57.9A3.46,3.46,0,0,0,266.09,84C267,84.55,267.67,84.14,267.67,83.15Z"/>
            <path class="cls-20"
                  d="M272.11,85.71A3.46,3.46,0,0,0,270.54,83c-.87-.5-1.58-.1-1.58.9a3.48,3.48,0,0,0,1.58,2.72C271.41,87.11,272.11,86.71,272.11,85.71Z"/>
            <path d="M289.49,100.47,210.42,54.94c-5.28-3-9.56.19-9.56,7.23V251.31c0,7,4.28,15.23,9.56,18.27l79.07,45.54c5.28,3.05,9.56-.19,9.56-7.23V118.75C299.05,111.7,294.77,103.52,289.49,100.47Z"/>
            <path class="cls-3"
                  d="M294.5,107.91a16.82,16.82,0,0,0-5.73-6.19L209.71,56.18c-1.3-.75-3.2-1.45-4.83-.5s-2.59,3.32-2.59,6.49V251.31a22.62,22.62,0,0,0,3.11,10.84,17,17,0,0,0,5.74,6.2l79.06,45.53c1.3.75,3.19,1.44,4.83.5s2.59-3.31,2.59-6.49V118.75A22.53,22.53,0,0,0,294.5,107.91Z"/>
            <polygon class="cls-21" points="283.23 215.31 216.53 176.85 216.53 116 283.23 154.45 283.23 215.31"/>
            <path class="cls-3"
                  d="M276.84,222.55c0,2.31-.08,4.6-.25,6.81q-.12,1.48-.3,2.91h0c-.08.66-.18,1.31-.28,1.94-.15.82-.31,1.62-.49,2.4s-.43,1.6-.69,2.35h0c-.2.59-.42,1.16-.66,1.69a12.35,12.35,0,0,1-.87,1.66l-.12.19a8.13,8.13,0,0,1-.82,1.05h0a7.21,7.21,0,0,1-2.65,1.75c-.26.1-.52.19-.79.27s-.68.16-1,.22a8.08,8.08,0,0,1-.86.1,13.88,13.88,0,0,1-2.24,0l-.93-.07-.47-.05c-.31,0-.63-.07-.95-.13l-.24,0c-.5-.08-1-.18-1.53-.3l-1-.24c-.58-.15-1.16-.33-1.75-.52-.34-.11-.68-.23-1-.36a40.29,40.29,0,0,1-5.11-2.32q-.54-.28-1.08-.6c-1-.58-2.05-1.2-3.07-1.87l-1.22-.82q-2.12-1.45-4.22-3.12c-.46-.37-.92-.74-1.37-1.12,0,0,0,0,0,0-1-.82-2-1.68-2.94-2.55l-1-.92-.21-.19c-.73-.68-1.47-1.39-2.2-2.13-.36-.35-.71-.71-1.07-1.08q-.9-.93-1.77-1.92c-.35-.39-.71-.79-1.05-1.2a54,54,0,0,1-3.86-5.09c-.34-.5-.67-1-1-1.54-.44-.71-.85-1.43-1.24-2.17-.27-.5-.52-1-.76-1.51-.09-.17-.17-.34-.24-.5a37.73,37.73,0,0,1-2-5.31h0c-.17-.57-.32-1.13-.46-1.69h0a47.66,47.66,0,0,1-1.12-6.85c-.06-.58-.1-1.16-.13-1.73-.07-1.07-.12-2.12-.14-3.16,0-.47,0-.94,0-1.4,0-1.61,0-3.19,0-4.74a2.44,2.44,0,0,0,0-.27c0-.3,0-.6,0-.9l0-1.84c0-.41,0-.81,0-1.21l0-2.29c0-.4,0-.8,0-1.2,0-.82,0-1.64,0-2.46l0-1.39c0-1.39.07-2.78.13-4.16,0-.55,0-1.1.07-1.64.08-1.79.18-3.56.32-5.31.05-.57.09-1.15.15-1.71q.33-3.63.91-7.08c.1-.62.21-1.23.33-1.84h0c.06-.31.12-.61.19-.9a43,43,0,0,1,4.26-12h0a24.75,24.75,0,0,1,2.59-3.81h0a18.81,18.81,0,0,1,1.65-1.79,18.11,18.11,0,0,1,2.88-2.24h0a15.82,15.82,0,0,1,3.54-1.63c7-2.23,18.72,7.51,24.65,17.59a2.9,2.9,0,0,1,.19.34c.7,1.19,1.34,2.4,2,3.61.48,1,.93,1.95,1.37,2.94.35.81.7,1.62,1,2.43.21.53.41,1.06.62,1.6s.5,1.36.74,2c.38,1.09.74,2.17,1.08,3.26.19.6.38,1.2.56,1.8.34,1.15.67,2.3,1,3.44.14.5.27,1,.4,1.5.18.66.36,1.32.52,2,.74,2.84,1.4,5.68,2,8.5.12.55.23,1.1.33,1.64q.6,2.94,1.08,5.85c.09.48.17,1,.24,1.45.27,1.69.51,3.38.72,5,.06.42.11.84.16,1.26s.13,1.1.19,1.64.09.82.13,1.23c.18,1.69.32,3.35.44,5,0,.41.06.82.08,1.22.06.83.1,1.66.14,2.49,0,.64.06,1.3.09,2,0,.39,0,.8.05,1.19.09,2.12.16,4.34.18,6.56C276.84,221.26,276.85,221.9,276.84,222.55Z"/>
            <path class="cls-22"
                  d="M263.72,154.56,262.43,153l-1.28-1.51c-6.22-7.34-12.88-14.38-19.35-16.22-3.09-.88-5.37-.15-7.79.62-.67.22-1.36.44-2.08.62-.47.12-.94.24-1.42.34a18.11,18.11,0,0,1,2.88-2.24h0c2.5-.8,4.87-1.55,8.16-.62,6.81,1.94,13.67,9.19,20.07,16.73l.15.19C262.47,152.14,263.11,153.35,263.72,154.56Z"/>
            <path class="cls-2"
                  d="M241.15,193.68c-.9.26-1.89.49-2.92.69-1.46.26-3,.47-4.45.67-4.57.63-9.3,1.29-12.85,3.92q-.51.38-1,.78c-.05-.59-.1-1.15-.14-1.73l.34-.25c3.63-2.72,8.44-3.37,13.07-4,1.46-.21,3-.42,4.43-.69.6-.11,1.18-.23,1.75-.37h0Z"/>
            <path class="cls-2"
                  d="M226.61,185.29c-1.23.23-2.51.41-3.74.55a8.68,8.68,0,0,1-3.11-.14c0-.41,0-.82,0-1.22a8,8,0,0,0,2.58.05c.79-.09,1.6-.19,2.4-.32Z"/>
            <path class="cls-22"
                  d="M252.29,175.49a39,39,0,0,1-.47,7.5,12.72,12.72,0,0,1-6.49,8.94,18.56,18.56,0,0,1-4.18,1.75l-1.72-1a21.36,21.36,0,0,0,4.46-1.61,12.22,12.22,0,0,0,6.92-8.9,37.21,37.21,0,0,0,.48-7.28,10.17,10.17,0,0,0-2.74-7c-1.49-1.38-3-1.43-4.28-.13a15.51,15.51,0,0,0-2.75,5.41,32.65,32.65,0,0,1-1.41,3.42,15.09,15.09,0,0,1-8.57,7.3h0a28.93,28.93,0,0,1-4.91,1.34l-1.85-1.08a31.36,31.36,0,0,0,5.16-1.18c3.83-1.24,7.24-3.41,9.27-7.38a33.65,33.65,0,0,0,1.36-3.36c.76-2,1.53-4.18,2.89-5.62s3.5-1.46,5.41.34A12.27,12.27,0,0,1,252.29,175.49Z"/>
            <path class="cls-22"
                  d="M247.58,175.58a3.23,3.23,0,0,0-1.08-1.89c-.95-.71-1.91.07-2.54.81a12.12,12.12,0,0,0-1.54,2.61c-.23.46-.46.94-.71,1.38a20.81,20.81,0,0,1-3.85,5.16,19.18,19.18,0,0,1-3,2.24,20.13,20.13,0,0,1-4,1.89l1.59.92a20.41,20.41,0,0,0,3.78-2,18.75,18.75,0,0,0,2.39-1.87,21.44,21.44,0,0,0,3.93-5.3c.27-.46.5-.95.73-1.41a13.27,13.27,0,0,1,1.46-2.49c.73-.85,1.36-1,1.56-.87a1.42,1.42,0,0,1,.25.62,11.76,11.76,0,0,1-.32,4.4,11.55,11.55,0,0,1-1.63,3.94,13.67,13.67,0,0,1-5.7,4.52c-.8.37-1.61.72-2.4,1.08-.55.24-1.12.49-1.68.72l1.53.9.82-.35c1-.46,2.13-.94,3.19-1.5a13.5,13.5,0,0,0,5.13-4.31,11.94,11.94,0,0,0,1.73-4.21A12.22,12.22,0,0,0,247.58,175.58Z"/>
            <path class="cls-2"
                  d="M232.51,188.7a17.67,17.67,0,0,1-2.4.78,17.87,17.87,0,0,1-7.08.23,11.61,11.61,0,0,1-3.32-1,2.44,2.44,0,0,0,0-.27c0-.3,0-.6,0-.9a11,11,0,0,0,2.95.89,17.23,17.23,0,0,0,6.84-.23c.46-.13.91-.25,1.37-.41h0Z"/>
            <path class="cls-2"
                  d="M236.41,190.94a38.7,38.7,0,0,1-6.88,2.44,52.11,52.11,0,0,1-5.32.83c-1.5.18-3,.35-4.5.63,0-.45,0-.93,0-1.39,1.31-.23,2.67-.39,4-.55a50.08,50.08,0,0,0,5.28-.81,35.77,35.77,0,0,0,5.9-2.05h0Z"/>
            <path class="cls-2" d="M221.86,182.53a7.2,7.2,0,0,1-2.05-.33c0-.27,0-.55,0-.83Z"/>
            <path class="cls-22"
                  d="M275.87,202.17a39.74,39.74,0,0,1-5.47-3.65,46.1,46.1,0,0,1-12.61-16c-.92-2-1.68-4-2.41-5.95s-1.48-4-2.4-5.92c-1.64-3.46-4.43-7.49-7.36-8.46a4.55,4.55,0,0,0-3.25.2c-3.29,1.32-5.2,4.94-7,8.46a45.55,45.55,0,0,1-2.39,4.22,20,20,0,0,1-5.28,5.51c-.3.21-.6.4-.9.58a8.82,8.82,0,0,1-4.91,1.32l-2-1.16a2.29,2.29,0,0,1,0-.37,7.59,7.59,0,0,0,5.48-.64,10,10,0,0,0,1.6-1,19.19,19.19,0,0,0,5.16-5.37c.85-1.29,1.61-2.76,2.35-4.17,1.89-3.58,3.83-7.31,7.29-8.72a5.08,5.08,0,0,1,3.69-.16c3.4,1.11,6.56,5.63,8.39,9.46,1,2,1.73,4.12,2.48,6.13s1.44,3.87,2.33,5.76a43.68,43.68,0,0,0,12,15.14,38.42,38.42,0,0,0,5.16,3.46C275.78,201.34,275.82,201.77,275.87,202.17Z"/>
            <path class="cls-2"
                  d="M246.29,196.63a13.3,13.3,0,0,1-1.7,1.06,30.13,30.13,0,0,1-7.33,2.33l-1.68.37c-5.22,1.25-11,3.27-14,7.9-.16-.57-.31-1.14-.46-1.7a16.28,16.28,0,0,1,6.26-4.91A38.59,38.59,0,0,1,235,199.1l1.68-.39a28,28,0,0,0,7.21-2.28,8.82,8.82,0,0,0,1-.6Z"/>
            <path class="cls-22"
                  d="M276.38,208.39a50.37,50.37,0,0,1-7.84-5.86,38.8,38.8,0,0,1-8.85-11.87c-.28-.58-.53-1.18-.77-1.75-.43-1-.83-1.91-1.31-2.79a6.29,6.29,0,0,0-2-2.47.89.89,0,0,0-1.11.14,4.4,4.4,0,0,0-1.08,2.35,10.47,10.47,0,0,1-.34,1.18,19.63,19.63,0,0,1-2.24,4.36,20.54,20.54,0,0,1-1.82,2.41,16.09,16.09,0,0,1-2.77,2.54l-1.4-.8a14.66,14.66,0,0,0,3-2.45,18.37,18.37,0,0,0,2.14-2.76,20.48,20.48,0,0,0,2.19-4.22c.12-.35.21-.74.32-1.13a5,5,0,0,1,1.25-2.66,1.54,1.54,0,0,1,1.89-.15,8.38,8.38,0,0,1,2.74,3.31c.53,1,1,2,1.39,3,.23.57.48,1.13.74,1.7a36.62,36.62,0,0,0,8.32,11.12,49,49,0,0,0,7.47,5.6C276.33,207.6,276.36,208,276.38,208.39Z"/>
            <path class="cls-22"
                  d="M275.54,199.3a33.73,33.73,0,0,1-8.71-7.1,47.51,47.51,0,0,1-7.61-13.42c-.27-.7-.54-1.4-.8-2.09-.7-1.83-1.42-3.7-2.3-5.49-2-4.12-4.76-6.77-8.27-9.49a6.63,6.63,0,0,1-2.44-3,2.06,2.06,0,0,1,.47-2.41,2.37,2.37,0,0,1,1.92-.05c2.84.78,6.18,3.57,9.16,7.62a80.79,80.79,0,0,1,6.58,11.46,78.85,78.85,0,0,0,6.39,11.1,38.78,38.78,0,0,0,4.49,5.1c.09.48.17,1,.24,1.45a41.2,41.2,0,0,1-5.3-5.91,80.1,80.1,0,0,1-6.6-11.46,78.64,78.64,0,0,0-6.38-11.1c-2.73-3.73-5.77-6.28-8.33-7a1.79,1.79,0,0,0-1.43,0,1,1,0,0,0-.3,1.21,4.87,4.87,0,0,0,1.7,1.91,28.72,28.72,0,0,1,8.9,10.27c.92,1.89,1.66,3.82,2.37,5.69l.8,2.07a44.62,44.62,0,0,0,7.21,12.74,31.26,31.26,0,0,0,8.08,6.61C275.44,198.46,275.49,198.88,275.54,199.3Z"/>
            <path class="cls-22"
                  d="M273.34,185.69c-3.38-3.54-6.1-8.11-8.38-12.12l-.84-1.49c-3.11-5.48-6.32-11.15-10.64-15.38-3.06-3-6.69-4.73-9-4.3s-4.24,1.9-6.06,4.52c-.35.5-.7,1-1.06,1.48a29,29,0,0,0-2.76,4.32c-.27.55-.54,1.11-.82,1.67-.95,2-1.94,4-3.05,5.87-2.52,4.23-5.17,6.69-8.35,7.74a13.33,13.33,0,0,1-2.48.54l0-1.39a11.08,11.08,0,0,0,1.83-.43c3.06-1,5.62-3.4,8.07-7.51,1.09-1.84,2.08-3.87,3-5.82l.81-1.68a29.94,29.94,0,0,1,2.82-4.41c.35-.48.7-1,1-1.46,1.9-2.74,4-4.29,6.38-4.73,2.6-.48,6.58,1.4,9.93,4.68,4.54,4.45,7.83,10.27,11,15.9l.85,1.48A62.41,62.41,0,0,0,273,184.05C273.13,184.6,273.24,185.15,273.34,185.69Z"/>
            <path class="cls-22"
                  d="M271,175.55l-.25-.3a99.74,99.74,0,0,1-6.31-8.89A76.64,76.64,0,0,0,257,156.24c-4.84-5.26-10.84-8.15-15.27-7.36-2.45.42-4.91,2-7.29,4.68a38.27,38.27,0,0,0-4.85,7.68c-.39.73-.77,1.46-1.17,2.18-2,3.68-4.29,7.43-7.85,9.28L220,173c0-.55,0-1.1.07-1.64,3.32-1.82,5.5-5.42,7.45-9l1.16-2.17a39.52,39.52,0,0,1,4.93-7.81c2.46-2.76,5-4.39,7.58-4.83,4.71-.83,11.08,2.24,16.23,7.82a80.67,80.67,0,0,1,7.66,10.43c1.71,2.61,3.48,5.31,5.39,7.74C270.68,174.23,270.86,174.89,271,175.55Z"/>
            <path class="cls-22"
                  d="M269.11,168.63a52.68,52.68,0,0,1-3.76-4.09c-1.3-1.59-2.55-3.28-3.75-4.92s-2.42-3.29-3.69-4.83c-5.38-6.52-11.69-10.65-16.48-10.76-5.56-.14-8.88,4.69-11.4,9.42l-.93,1.77c-2.27,4.39-4.62,8.92-8.68,10.82.05-.57.09-1.15.15-1.71,3.42-2,5.55-6.14,7.61-10.13l.93-1.78c2.6-4.87,6-9.85,11.88-9.7,5.08.12,11.75,4.47,17.41,11.33,1.31,1.58,2.56,3.29,3.77,4.94s2.41,3.27,3.67,4.81c.87,1,1.78,2.07,2.71,3C268.74,167.43,268.93,168,269.11,168.63Z"/>
            <path class="cls-22"
                  d="M231.81,145.33c-.1.21-.19.4-.25.56a22.37,22.37,0,0,1-2.7,4.6l-.18.26a20.63,20.63,0,0,1-7.2,6.5c.1-.62.21-1.23.33-1.84h0a20.7,20.7,0,0,0,6-5.75l.19-.26a22.65,22.65,0,0,0,2.62-4.46c.06-.18.16-.38.26-.61.49-1,1.3-2.8.46-4s-2.49,0-3.11.45l-.07.06a16.2,16.2,0,0,0-1.88,1.69,24.75,24.75,0,0,1,2.59-3.81h0a2.33,2.33,0,0,1,3.09,1C233.4,141.87,232.4,144,231.81,145.33Z"/>
            <path class="cls-22"
                  d="M267.47,163.57c-2.73-2.83-5.36-5.89-7.94-8.9-1.2-1.39-2.44-2.84-3.66-4.22a39.26,39.26,0,0,0-4.23-4.32,21.81,21.81,0,0,0-4-2.66,18.8,18.8,0,0,0-7-2.27,9.51,9.51,0,0,0-3.15.19,6.3,6.3,0,0,0-.77.25,3.37,3.37,0,0,1-2.21.25,1.62,1.62,0,0,1-.78-.43,2.34,2.34,0,0,1-.61-1,1.92,1.92,0,0,1,.21-1.59c2-2.88,6.74-2.33,10.46-.86,5.54,2.21,11,7.83,15.16,12.5,1.1,1.22,2.21,2.51,3.27,3.74s1.9,2.19,2.87,3.28c.35.81.7,1.62,1,2.43-1.47-1.62-2.92-3.29-4.34-4.93-1.06-1.23-2.17-2.5-3.25-3.72-4-4.51-9.3-10-14.58-12.05-3.48-1.38-7.87-1.92-9.73.7a.87.87,0,0,0-.14.63l.17.05a2.87,2.87,0,0,0,1.83-.24,8.06,8.06,0,0,1,.83-.28,10.15,10.15,0,0,1,3.34-.19,19.39,19.39,0,0,1,7.36,2.38,24.34,24.34,0,0,1,4.27,2.83,44.23,44.23,0,0,1,4.44,4.54c1.23,1.4,2.48,2.85,3.68,4.24,2.21,2.58,4.45,5.18,6.74,7.64C267,162.21,267.23,162.89,267.47,163.57Z"/>
            <path class="cls-2"
                  d="M276.84,220.61v1.95a38.37,38.37,0,0,0-4.34-7.4,70,70,0,0,0-6.43-7.1l2.84,1.64a48.71,48.71,0,0,1,4.13,4.8A41,41,0,0,1,276.84,220.61Z"/>
            <path class="cls-22"
                  d="M266.26,207c.89.89,1.77,1.77,2.65,2.69l-2.84-1.64-.14-.15c-1.17-1.16-2.37-2.36-3.54-3.62a43.2,43.2,0,0,1-3.86-4.77,25.08,25.08,0,0,1-4.26-8.76,3.52,3.52,0,0,1,0-2.54c.37-.62,1.23-.65,2.15-.09a7.86,7.86,0,0,1,2.1,2.18,32.39,32.39,0,0,1,2.88,5.33c.37.79.75,1.62,1.15,2.4a35.84,35.84,0,0,0,4,6.15,36.78,36.78,0,0,0,10,8.67l.06,1.2a39.28,39.28,0,0,1-12-11,36.35,36.35,0,0,1-2.9-4.75c-.42-.83-.81-1.68-1.2-2.49a29.76,29.76,0,0,0-2.65-4.94,5.83,5.83,0,0,0-1.55-1.63c-.51-.32-1-.33-1.2,0a2.64,2.64,0,0,0,0,1.72,25.9,25.9,0,0,0,5.16,9.62c.81,1.06,1.64,2,2.42,2.86C263.93,204.68,265.11,205.87,266.26,207Z"/>
            <path class="cls-2"
                  d="M276.59,229.36q-.12,1.48-.3,2.91a35.22,35.22,0,0,0-4.36-12.22,46.11,46.11,0,0,0-5.55-6.87c-1.26-1.37-2.57-2.79-3.77-4.31-.81-1-1.58-2.11-2.33-3.15s-1.51-2.11-2.29-3.1a17.88,17.88,0,0,0-5.4-4.81c-1.26-.65-2.6-.13-4,1.53a20.25,20.25,0,0,0-1.33,1.91,17.48,17.48,0,0,1-1.58,2.22c-2.36,2.63-6,3.18-9.43,3.71-3.26.49-6.62,1-8.87,3.24a13,13,0,0,0-2.89,5.18c-.27-.5-.52-1-.76-1.51a12.92,12.92,0,0,1,2.83-4.83c2.37-2.35,5.81-2.87,9.14-3.38s6.9-1.06,9.14-3.56a17.9,17.9,0,0,0,1.53-2.14,20.94,20.94,0,0,1,1.37-2c1.56-1.88,3.16-2.42,4.76-1.6a19.85,19.85,0,0,1,6,5.3c.83,1,1.61,2.14,2.37,3.2s1.48,2.08,2.26,3c1.15,1.46,2.42,2.85,3.66,4.19a49.28,49.28,0,0,1,5.82,7.21A34.05,34.05,0,0,1,276.59,229.36Z"/>
            <path class="cls-2"
                  d="M269.15,218.93a56.88,56.88,0,0,0-3.91-4.43c-1.16-1.23-2.35-2.49-3.43-3.85-.73-.91-1.44-1.9-2.12-2.86a41.81,41.81,0,0,0-3.57-4.57c-2.24-2.36-5.25-3.93-6.67-2.35a5.46,5.46,0,0,0-1,2.66c-.05.27-.1.54-.16.79-.83,3.68-3.47,6.05-7.86,7A45.19,45.19,0,0,1,236,212a28.77,28.77,0,0,0-6.73,1.32,4.58,4.58,0,0,0-3.46,4.41c.31.53.64,1,1,1.54,0-2.92,1.12-3.93,3.12-4.68a28.57,28.57,0,0,1,6.61-1.29,44,44,0,0,0,4.58-.7c4.61-1,7.39-3.55,8.27-7.49.06-.27.11-.55.16-.82a5,5,0,0,1,.8-2.32c1.11-1.23,3.63.14,5.45,2.06a39.6,39.6,0,0,1,3.37,4.33c.7,1,1.43,2,2.19,3,1.14,1.43,2.37,2.73,3.56,4a53.26,53.26,0,0,1,3.76,4.25,37.17,37.17,0,0,1,6.71,15.8c.07.4.14.8.2,1.2.18-.78.34-1.58.49-2.4A39,39,0,0,0,269.15,218.93Z"/>
            <path class="cls-2"
                  d="M260.68,228.21c-.19-1.76-.28-3.5-.37-5.18-.24-4.42-.49-9-2.5-14.22a14.52,14.52,0,0,0-2.08-3.86,5.36,5.36,0,0,0-3.22-2.25c-1.9-.17-2.28,2.3-2.34,3.79-.23,6.17,1.61,13.17,3.38,19.95a110.79,110.79,0,0,1,3.05,14c.16,1.29.26,2.55.31,3.78.33.13.67.25,1,.36-.06-1.23-.16-2.47-.32-3.74a112.3,112.3,0,0,0-3.1-14.26c-1.74-6.65-3.54-13.53-3.32-19.48,0-1,.29-3.24,1.72-3.12a3.91,3.91,0,0,1,2.3,1.65,12.55,12.55,0,0,1,1.73,3.23c1.9,4.92,2.12,9.16,2.37,13.65.09,1.69.18,3.45.37,5.25a102.11,102.11,0,0,0,4.18,18.09l.93.07A99.29,99.29,0,0,1,260.68,228.21Z"/>
            <path class="cls-2"
                  d="M253.83,211.29a.6.6,0,0,1,.82-.11,2.55,2.55,0,0,1,.81.91,9.15,9.15,0,0,1,1,2.65,82.76,82.76,0,0,1,1.46,9.23c.2,1.71.41,3.48.69,5.25a148.36,148.36,0,0,0,3.87,16.47c.32.06.64.1.95.13a143.18,143.18,0,0,1-3.83-16.25c-.27-1.74-.48-3.5-.68-5.19a85.31,85.31,0,0,0-1.49-9.42,11.47,11.47,0,0,0-1.22-3.31,4.75,4.75,0,0,0-1.5-1.64c-1.28-.74-2.13.27-2.22,1.69-.27,4.62,1.39,10,3,15.18.43,1.4.88,2.84,1.27,4.22a88.24,88.24,0,0,1,3,14l1,.24a92.11,92.11,0,0,0-3-14.13c-.39-1.41-.84-2.86-1.28-4.27-1.55-5-3.16-10.25-2.91-14.61A1.84,1.84,0,0,1,253.83,211.29Z"/>
            <path class="cls-2"
                  d="M274.83,239h0c-.2.59-.42,1.16-.66,1.69a55.2,55.2,0,0,0-3.33-12.6l-.44-1.14c-1.07-2.76-2.28-5.89-4.2-7.91-1.24-1.3-2.19-1.45-2.76-1.34-1,.19-1.69,1.34-1.69,2.92a41.93,41.93,0,0,0,1.25,9.65A150.12,150.12,0,0,0,267.6,245c.1.27.19.53.28.8a8.08,8.08,0,0,1-.86.1c-.11-.3-.21-.6-.32-.89A147.86,147.86,0,0,1,262,230a43.66,43.66,0,0,1-1.3-10c0-2,.83-3.38,2.14-3.63,1.11-.2,2.43.43,3.71,1.78,2.24,2.36,3.55,5.73,4.7,8.7.15.38.29.76.44,1.12A57,57,0,0,1,274.83,239Z"/>
            <path class="cls-2"
                  d="M265.26,231a37.28,37.28,0,0,0,1.82,7.35c.79,2.34,1.66,4.69,2.63,7-.26.1-.52.19-.79.27-1-2.43-1.94-4.88-2.75-7.31a39.58,39.58,0,0,1-1.92-7.75c-.07-.65-.63-6.32,1.47-6.2,1.75.1,3.43,3.13,4.42,5.92a61.83,61.83,0,0,1,3,12.26,8.13,8.13,0,0,1-.82,1.05,58.87,58.87,0,0,0-3.12-13.29c-.16-.47-1.65-4.55-3.1-4.64C265.12,225.57,265,228.71,265.26,231Z"/>
            <path class="cls-2"
                  d="M250.56,219.81c-1-2.79-2.22-4.62-3.58-5.32a2.06,2.06,0,0,0-2.52.33,7.31,7.31,0,0,0-1,1.31,5.8,5.8,0,0,1-1.08,1.33c-1.13.91-2.78.74-4.54.56a10.56,10.56,0,0,0-3.81,0c-2.22.63-3.49,3.12-3.39,6.34.34.41.7.81,1.05,1.2-.3-3.16.84-5.66,2.94-6.25a10.26,10.26,0,0,1,3.59,0c1.8.19,3.65.38,4.94-.66a6.73,6.73,0,0,0,1.19-1.45,7,7,0,0,1,.95-1.22,1.51,1.51,0,0,1,1.78-.3c1.17.6,2.07,2.58,2.61,4.13,2.9,8.23,3.25,16.25,1.07,21.5q.54.31,1.08.6C253.92,236.42,253.52,228.22,250.56,219.81Z"/>
            <path class="cls-2"
                  d="M249.53,233.55c-.18,2.86-.78,4.78-1.85,5.87l0,0-1.22-.82a3,3,0,0,0,.43-.37c.95-1,1.49-2.73,1.66-5.37a26.85,26.85,0,0,0-.23-5.74c-.11-.73-.55-3.17-1.83-4.06a1.51,1.51,0,0,0-1.72-.05,5.08,5.08,0,0,0-.66.51,4.18,4.18,0,0,1-1,.67,5.87,5.87,0,0,1-3.63-.07,7.73,7.73,0,0,0-2.75-.27c-1.68.29-2.58,2.26-2.24,4.72-.36-.35-.71-.71-1.07-1.08-.14-2.6.92-4.62,2.76-4.94a8.25,8.25,0,0,1,3,.29,5.43,5.43,0,0,0,3.25.09,4,4,0,0,0,.87-.61,5,5,0,0,1,.72-.54,2.21,2.21,0,0,1,2.54.18c1.34.93,2.36,3,2.73,5.52A29.07,29.07,0,0,1,249.53,233.55Z"/>
            <path class="cls-2"
                  d="M243.28,235.08a6.29,6.29,0,0,1-1.07.43c-.46-.37-.92-.74-1.37-1.12a6.08,6.08,0,0,0,1.75-.56,2.93,2.93,0,0,0,1.74-2.91,2.55,2.55,0,0,0-.33-1,.52.52,0,0,0-.19-.19c-.16-.07-.36.05-.55.16l0,0a4.63,4.63,0,0,1-3.76.31l-.16-.05a1.91,1.91,0,0,0-.68-.13c-.18,0-.34.21-.48.5a3.16,3.16,0,0,0-.25,1.33l-1-.92a3.8,3.8,0,0,1,.31-1.41,1.23,1.23,0,0,1,.86-.79,2.07,2.07,0,0,1,1,.16l.15,0a4,4,0,0,0,3.27-.26l0,0a1.14,1.14,0,0,1,1.18-.15,2.42,2.42,0,0,1,.94.9,4.46,4.46,0,0,1,.68,2A3.58,3.58,0,0,1,243.28,235.08Z"/>
            <polygon class="cls-22" points="289.75 221.72 208.88 175.03 208.88 170.86 289.75 217.55 289.75 221.72"/>
            <path class="cls-23"
                  d="M297.62,118.75v1.37l-95.33,32.93V88.94l40.18-13.88,46.3,26.66a16.8,16.8,0,0,1,5.74,6.2A22.44,22.44,0,0,1,297.62,118.75Z"/>
            <path class="cls-23"
                  d="M297.62,225.38V289.5l-31.09,10.74-55.39-31.9a16.74,16.74,0,0,1-5.73-6.19,25.2,25.2,0,0,1-1.94-4.23Z"/>
            <path class="cls-24"
                  d="M303.29,110.32v45.37l-27.91-16.12c-2.21-1.27-4-4.69-4-7.63V78.15L293,90.58C298.66,93.87,303.29,102.71,303.29,110.32Z"/>
            <path class="cls-25"
                  d="M361.59,105.22l-90.12-52A2.58,2.58,0,0,0,268.9,53h0l-2.7,1.54-.08.37,1.4.66a5,5,0,0,0,0,.69v61.93c0,2.94,1.79,6.36,4,7.64l90.12,52a3,3,0,0,0,.4.21l-.59.25.1,1.29,2.62-1.49h0c.89-.47,1.46-1.62,1.46-3.28V112.86C365.58,109.91,363.79,106.5,361.59,105.22Z"/>
            <path class="cls-22"
                  d="M358.9,179.35l-90.11-52c-2.21-1.27-4-4.69-4-7.64V57.75c0-2.94,1.79-4.3,4-3l90.11,52c2.21,1.28,4,4.7,4,7.64v61.94C362.9,179.27,361.11,180.62,358.9,179.35Z"/>
            <path class="cls-26"
                  d="M286.51,99.56l-12.33-7.12a3.78,3.78,0,0,1-1.59-3V81.27c0-1.17.71-1.71,1.59-1.2l12.33,7.11a3.81,3.81,0,0,1,1.59,3v8.14C288.1,99.53,287.39,100.07,286.51,99.56Z"/>
            <path d="M283.92,88.73h0l4.17,2.41v-.33l-4.2-2.42h0s0,0,0,0h0a.59.59,0,0,0-.47-.07h0a.43.43,0,0,0-.22.2.78.78,0,0,0-.09.37v5.05a1.48,1.48,0,0,0,.11.53,1.53,1.53,0,0,0,.21.4,1.65,1.65,0,0,0,.51.51l4.17,2.4v-.33L283.93,95a1.17,1.17,0,0,1-.54-.93V89A.33.33,0,0,1,283.92,88.73Z"/>
            <path d="M277.18,85a3,3,0,0,0-.18-.36,1.73,1.73,0,0,0-.45-.48h0l-.08,0-3.87-2.23v.33l3.87,2.23a1.18,1.18,0,0,1,.54.93v5.06c0,.34-.24.48-.54.31l-3.87-2.23v.33l3.87,2.23.08,0a.51.51,0,0,0,.46,0,.33.33,0,0,0,.15-.11.64.64,0,0,0,.14-.44V85.52A1.48,1.48,0,0,0,277.18,85Z"/>
            <path d="M283.94,95.37h0c-.58-.33-1.05-.05-1.05.62v1.47l-.29-.16V95.82c0-.64.34-1,.83-1a1.39,1.39,0,0,1,.51.17Z"/>
            <path d="M277.88,93.11v1.47l-.29-.17V92.94a2.37,2.37,0,0,0-1-1.84h0v-.32a2.21,2.21,0,0,1,.46.36,3.17,3.17,0,0,1,.29.35,1,1,0,0,1,.08.11A2.88,2.88,0,0,1,277.88,93.11Z"/>
            <path d="M277.88,82.2v1.48c0,.67-.36,1-.88.95a1.15,1.15,0,0,1-.46-.16v-.33h0c.58.31,1,0,1-.64V82Z"/>
            <path d="M283.94,88.41v.32h0a2.19,2.19,0,0,1-.5-.42h0a3,3,0,0,1-.82-1.91V84.92l.29.16v1.48a2.39,2.39,0,0,0,1,1.82h0s0,0,0,0h0Z"/>
            <path d="M283.19,88.51a1.09,1.09,0,0,0-.48-.69l-5.06-2.93c-.22-.12-.4-.07-.47.1a.48.48,0,0,0,0,.18V91a1.16,1.16,0,0,0,.14.46,1,1,0,0,1,.08.11.86.86,0,0,0,.28.26l5.06,2.92c.28.16.5,0,.5-.28V88.67A.44.44,0,0,0,283.19,88.51Zm-.27,5.81c0,.14-.09.19-.21.12l-5.06-2.92a.46.46,0,0,1-.21-.36V85.34c0-.13.09-.19.21-.12l5.06,2.93a.43.43,0,0,1,.21.36Z"/>
            <polygon class="cls-27" points="288.1 91.1 288.1 96.1 282.29 97.13 275.65 93.29 288.1 91.1"/>
            <path class="cls-27"
                  d="M287.39,88l-14.64,2.59a.79.79,0,0,1-.06-.22,1.55,1.55,0,0,1-.06-.23.78.78,0,0,1,0-.16,2.28,2.28,0,0,1,0-.27V84l6.46-1.13,7.46,4.3A3.06,3.06,0,0,1,287.39,88Z"/>
            <path class="cls-2"
                  d="M357.67,173.54l-22.26-12.85a3.54,3.54,0,0,1-1.47-2.82V147.63c0-1.09.66-1.59,1.47-1.12l22.26,12.85a3.55,3.55,0,0,1,1.48,2.82v10.24C359.15,173.51,358.48,174,357.67,173.54Z"/>
            <path class="cls-26"
                  d="M354.88,170.36l-16.68-9.63a3.54,3.54,0,0,1-1.47-2.82v-7.1c0-1.09.66-1.59,1.47-1.12l16.68,9.63a3.55,3.55,0,0,1,1.48,2.82v7.1C356.36,170.33,355.69,170.83,354.88,170.36Z"/>
            <path class="cls-2"
                  d="M275.78,103.7l-2.43-1.4a1.45,1.45,0,0,1-.61-1.17V96.88c0-.46.27-.67.61-.47l2.43,1.4A1.48,1.48,0,0,1,276.4,99v4.25C276.4,103.69,276.12,103.9,275.78,103.7Z"/>
            <path class="cls-2"
                  d="M280,106.13l-2.43-1.4a1.45,1.45,0,0,1-.61-1.17V99.31c0-.46.27-.66.61-.47l2.43,1.4a1.5,1.5,0,0,1,.62,1.18v4.25C280.61,106.12,280.33,106.33,280,106.13Z"/>
            <path class="cls-2"
                  d="M284.2,108.57l-2.43-1.41a1.45,1.45,0,0,1-.61-1.17v-4.25c0-.45.27-.66.61-.47l2.43,1.41a1.46,1.46,0,0,1,.62,1.17v4.25C284.82,108.55,284.54,108.76,284.2,108.57Z"/>
            <path class="cls-2"
                  d="M288.41,111,286,109.6a1.5,1.5,0,0,1-.62-1.18v-4.25c0-.45.28-.66.62-.47l2.42,1.41a1.46,1.46,0,0,1,.62,1.17v4.25C289,111,288.75,111.19,288.41,111Z"/>
            <path class="cls-2"
                  d="M296.5,115.67l-2.43-1.41a1.45,1.45,0,0,1-.61-1.17v-4.25c0-.46.27-.66.61-.47l2.43,1.4a1.49,1.49,0,0,1,.61,1.18v4.25C297.11,115.65,296.84,115.86,296.5,115.67Z"/>
            <path class="cls-2"
                  d="M300.71,118.1l-2.43-1.41a1.45,1.45,0,0,1-.61-1.17v-4.25c0-.45.27-.66.61-.47l2.43,1.41a1.45,1.45,0,0,1,.61,1.17v4.25C301.32,118.08,301.05,118.29,300.71,118.1Z"/>
            <path class="cls-2"
                  d="M304.92,120.53l-2.43-1.4a1.49,1.49,0,0,1-.61-1.18V113.7c0-.45.27-.66.61-.46l2.43,1.4a1.46,1.46,0,0,1,.62,1.17v4.25C305.54,120.52,305.26,120.72,304.92,120.53Z"/>
            <path class="cls-2"
                  d="M309.13,123l-2.43-1.4a1.47,1.47,0,0,1-.61-1.18v-4.25c0-.45.27-.66.61-.46l2.43,1.4a1.46,1.46,0,0,1,.62,1.17v4.25C309.75,123,309.47,123.16,309.13,123Z"/>
            <path class="cls-2"
                  d="M317.22,127.63l-2.43-1.41a1.46,1.46,0,0,1-.62-1.17V120.8c0-.45.28-.66.62-.47l2.43,1.41a1.45,1.45,0,0,1,.61,1.17v4.25C317.83,127.61,317.56,127.82,317.22,127.63Z"/>
            <path class="cls-2"
                  d="M321.43,130.06l-2.43-1.4a1.49,1.49,0,0,1-.61-1.18v-4.25c0-.45.27-.66.61-.46l2.43,1.4a1.45,1.45,0,0,1,.61,1.17v4.25C322,130.05,321.77,130.25,321.43,130.06Z"/>
            <path class="cls-2"
                  d="M325.64,132.49l-2.43-1.4a1.47,1.47,0,0,1-.61-1.18v-4.25c0-.45.27-.66.61-.46l2.43,1.4a1.47,1.47,0,0,1,.61,1.17V132C326.25,132.48,326,132.69,325.64,132.49Z"/>
            <path class="cls-2"
                  d="M329.85,134.92l-2.43-1.4a1.47,1.47,0,0,1-.61-1.18v-4.25c0-.45.27-.66.61-.46l2.43,1.4a1.48,1.48,0,0,1,.62,1.18v4.25C330.47,134.91,330.19,135.12,329.85,134.92Z"/>
            <path class="cls-2"
                  d="M337.94,139.59l-2.43-1.4a1.5,1.5,0,0,1-.62-1.18v-4.25c0-.45.28-.66.62-.46l2.43,1.4a1.48,1.48,0,0,1,.61,1.17v4.25C338.55,139.58,338.27,139.78,337.94,139.59Z"/>
            <path class="cls-2"
                  d="M342.15,142l-2.43-1.4a1.48,1.48,0,0,1-.62-1.18v-4.25c0-.45.28-.66.62-.46l2.43,1.4a1.47,1.47,0,0,1,.61,1.17v4.26C342.76,142,342.49,142.22,342.15,142Z"/>
            <path class="cls-2"
                  d="M346.36,144.45l-2.43-1.4a1.48,1.48,0,0,1-.62-1.18v-4.25c0-.45.28-.66.62-.46l2.43,1.4a1.47,1.47,0,0,1,.61,1.18V144C347,144.44,346.7,144.65,346.36,144.45Z"/>
            <path class="cls-2"
                  d="M350.57,146.88l-2.43-1.4a1.47,1.47,0,0,1-.61-1.17v-4.26c0-.45.27-.66.61-.46l2.43,1.4a1.47,1.47,0,0,1,.61,1.18v4.25C351.18,146.87,350.91,147.08,350.57,146.88Z"/>
            <path class="cls-2"
                  d="M281,123.72l-8.07-4.66a1.19,1.19,0,0,1-.5-1v-1.66c0-.37.22-.54.5-.38l8.07,4.66a1.22,1.22,0,0,1,.5,1v1.67C281.5,123.71,281.27,123.88,281,123.72Z"/>
            <path class="cls-2"
                  d="M294.59,131.56l-12-6.93a1.2,1.2,0,0,1-.5-.95V122c0-.37.23-.54.5-.38l12,6.93a1.21,1.21,0,0,1,.49,1v1.66C295.08,131.55,294.86,131.72,294.59,131.56Z"/>
            <path class="cls-2"
                  d="M281,74.05l-8.07-4.66a1.17,1.17,0,0,1-.5-1V64c0-.37.22-.53.5-.38L281,68.3a1.22,1.22,0,0,1,.5,1v4.42C281.5,74,281.27,74.21,281,74.05Z"/>
            <path class="cls-2"
                  d="M294.59,81.9l-12-6.93a1.22,1.22,0,0,1-.5-1V69.6c0-.37.23-.54.5-.38l12,6.93a1.19,1.19,0,0,1,.49.95v4.42C295.08,81.89,294.86,82.06,294.59,81.9Z"/>
            <path class="cls-2"
                  d="M304.17,130.31l-5.12-3a.54.54,0,0,1-.23-.44v-1.11c0-.17.1-.24.23-.17l5.12,3a.55.55,0,0,1,.23.44v1.11C304.4,130.31,304.3,130.39,304.17,130.31Z"/>
            <path class="cls-2"
                  d="M304.17,128.06l-5.12-3a.54.54,0,0,1-.23-.44v-1.1c0-.17.1-.25.23-.18l5.12,3a.54.54,0,0,1,.23.44v1.1C304.4,128.05,304.3,128.13,304.17,128.06Z"/>
            <path class="cls-2"
                  d="M309.67,133.6l-2.12-1.22a.59.59,0,0,1-.25-.47v-3.65c0-.18.11-.26.25-.18l2.12,1.22a.59.59,0,0,1,.25.47v3.65C309.92,133.6,309.81,133.68,309.67,133.6Z"/>
            <path class="cls-2"
                  d="M312.67,135.34l-2.12-1.23a.59.59,0,0,1-.25-.47V130c0-.18.11-.26.25-.18l2.12,1.22a.6.6,0,0,1,.24.47v3.65C312.91,135.33,312.8,135.41,312.67,135.34Z"/>
            <path class="cls-2"
                  d="M318.5,138.7l-2.12-1.22a.59.59,0,0,1-.25-.47v-3.65c0-.18.11-.26.25-.18l2.12,1.22a.59.59,0,0,1,.25.47v3.65C318.75,138.7,318.64,138.78,318.5,138.7Z"/>
            <path class="cls-2"
                  d="M321.5,140.43l-2.12-1.22a.59.59,0,0,1-.25-.47v-3.65c0-.18.11-.26.25-.18l2.12,1.22a.6.6,0,0,1,.24.47v3.65C321.74,140.43,321.63,140.51,321.5,140.43Z"/>
            <path class="cls-2"
                  d="M313.61,135.67h0a.41.41,0,0,1-.09-.44l1.62-2.3c.07-.09.22-.05.34.09h0c.12.15.16.35.09.44l-1.63,2.3C313.87,135.85,313.72,135.81,313.61,135.67Z"/>
            <path class="cls-28"
                  d="M360.33,107.94,268,126.77a10,10,0,0,1-3.21-7.08V97l57-11.63,37.07,21.4A5.84,5.84,0,0,1,360.33,107.94Z"/>
            <polygon class="cls-28" points="362.89 123.82 362.89 154.24 327.81 161.4 288.87 138.91 362.89 123.82"/>
            <g class="cls-1">
                <path class="cls-29"
                      d="M330.41,84.55l3.93-2.28c3.5-2,8.36-1.75,13.71,1.34l-3.93,2.28C338.77,82.8,333.91,82.52,330.41,84.55Z"/>
                <path class="cls-29"
                      d="M361.64,129.25l-3.93,2.28c3.46-2,5.61-6.29,5.62-12.36,0-12.23-8.56-27.13-19.21-33.28l3.93-2.28c10.64,6.14,19.25,21,19.21,33.27C367.25,123,365.1,127.23,361.64,129.25Z"/>
                <path class="cls-30"
                      d="M344.12,85.89c10.65,6.15,19.25,21,19.21,33.28s-8.69,17.16-19.33,11-19.25-21-19.21-33.28S333.48,79.75,344.12,85.89Z"/>
                <path class="cls-31"
                      d="M338.61,118.88,335.78,114c-.64-1.1-.64-2.28,0-2.64l18-10.28c.64-.36,1.67.24,2.31,1.33l2.83,4.89c.64,1.1.64,2.28,0,2.65l-18,10.27C340.28,120.57,339.25,120,338.61,118.88Z"/>
                <path class="cls-31"
                      d="M343.74,118.59l-2.83,1.61c-.64.37-1.67-.23-2.31-1.33l-9.41-16.23c-.64-1.1-.64-2.28,0-2.64L332,98.38c.64-.36,1.67.23,2.31,1.33l9.41,16.23C344.38,117,344.38,118.22,343.74,118.59Z"/>
            </g>
            <path class="cls-24"
                  d="M303.29,167.36v23l-14.2-8.2a6.7,6.7,0,0,1-2.79-5.32V161.25c0-2.05,1.26-3,2.79-2.1Z"/>
            <path class="cls-25"
                  d="M349.09,186.05l-62.7-36.2a1.76,1.76,0,0,0-1.79-.16h0l-1.88,1.07-.05.25,1,.46c0,.15,0,.31,0,.48v15.57a6.66,6.66,0,0,0,2.78,5.32l62.7,36.2.28.14-.41.18.07.89,1.82-1h0a2.4,2.4,0,0,0,1-2.27V191.36A6.66,6.66,0,0,0,349.09,186.05Z"/>
            <path class="cls-22"
                  d="M347.22,210.1l-62.7-36.2a6.63,6.63,0,0,1-2.78-5.31V153c0-2.05,1.24-3,2.78-2.11l62.7,36.2a6.66,6.66,0,0,1,2.78,5.32V208C350,210.05,348.76,211,347.22,210.1Z"/>
            <path class="cls-32"
                  d="M342.32,202.22l-52.9-30.71a5.17,5.17,0,0,1-2.17-4.14v-6.94c0-1.59,1-2.32,2.17-1.63l52.9,30.71a5.16,5.16,0,0,1,2.16,4.13v6.94C344.48,202.18,343.52,202.91,342.32,202.22Z"/>
            <path class="cls-2"
                  d="M292.92,169.35l-.65,0c-.54,0-1.16-.87-1.06-1.5l.12-.77a1.32,1.32,0,0,0-.21-.86l-.53-.9c-.43-.74-.19-1.44.41-1.2l.73.31a.42.42,0,0,0,.55-.14l.33-.58c.27-.47,1,0,1.31.76l.33.95a1.64,1.64,0,0,0,.55.78l.73.54c.6.45.84,1.43.41,1.67l-.54.28a.57.57,0,0,0-.2.62l.12.92c.1.74-.52.9-1.06.27l-.66-.78A.92.92,0,0,0,292.92,169.35Z"/>
            <path class="cls-2"
                  d="M299.5,173.15h-.66c-.53,0-1.16-.87-1.06-1.49l.13-.77a1.37,1.37,0,0,0-.21-.86l-.53-.91c-.44-.73-.2-1.44.4-1.19l.74.3a.4.4,0,0,0,.55-.14l.32-.57c.27-.47,1.05,0,1.31.75l.33,1a1.63,1.63,0,0,0,.55.77l.74.55c.6.45.83,1.43.4,1.66l-.53.29a.58.58,0,0,0-.21.62l.13.91c.1.75-.53.91-1.06.27l-.66-.77A.94.94,0,0,0,299.5,173.15Z"/>
            <path class="cls-2"
                  d="M306.07,176.94l-.65,0c-.54,0-1.17-.87-1.06-1.5l.12-.76a1.41,1.41,0,0,0-.21-.87l-.53-.9c-.43-.73-.19-1.44.4-1.19l.74.3a.41.41,0,0,0,.55-.14l.33-.58c.27-.47,1,0,1.31.76l.33.95a1.64,1.64,0,0,0,.55.78l.73.55c.6.44.84,1.42.41,1.66l-.54.29a.58.58,0,0,0-.21.62l.13.91c.1.74-.52.9-1.06.27l-.66-.78A1,1,0,0,0,306.07,176.94Z"/>
            <path class="cls-2"
                  d="M312.65,180.74H312c-.54,0-1.16-.86-1.06-1.49l.13-.77a1.37,1.37,0,0,0-.21-.86l-.54-.9c-.43-.74-.19-1.44.41-1.2l.73.3a.4.4,0,0,0,.55-.14l.33-.57c.27-.47,1,0,1.31.75l.33,1a1.63,1.63,0,0,0,.55.77l.74.55c.59.45.83,1.43.4,1.66l-.53.29a.58.58,0,0,0-.21.62l.12.91c.11.75-.52.91-1.05.28l-.66-.78A1,1,0,0,0,312.65,180.74Z"/>
            <path class="cls-2"
                  d="M319.22,184.53l-.66,0c-.53,0-1.16-.87-1.05-1.49l.12-.77a1.37,1.37,0,0,0-.21-.86l-.53-.91c-.43-.73-.2-1.44.4-1.19l.74.3a.41.41,0,0,0,.55-.14l.33-.58c.27-.46,1,0,1.31.76l.33,1a1.64,1.64,0,0,0,.55.78l.73.55c.6.44.84,1.42.41,1.66l-.54.29a.58.58,0,0,0-.21.62l.13.91c.1.74-.52.9-1.06.27l-.66-.77A.94.94,0,0,0,319.22,184.53Z"/>
            <path class="cls-2"
                  d="M325.8,188.33l-.66,0c-.54,0-1.16-.87-1.06-1.5l.13-.77a1.39,1.39,0,0,0-.21-.86l-.54-.9c-.43-.74-.19-1.44.41-1.2l.73.31a.41.41,0,0,0,.55-.15l.33-.57c.27-.47,1,0,1.31.75l.33,1a1.71,1.71,0,0,0,.55.78l.74.54c.59.45.83,1.43.4,1.66l-.53.29a.59.59,0,0,0-.21.62l.12.92c.11.74-.52.9-1.06.27l-.65-.78A1,1,0,0,0,325.8,188.33Z"/>
            <path class="cls-2"
                  d="M332.37,192.12l-.66,0c-.53,0-1.16-.87-1.06-1.49l.13-.77a1.37,1.37,0,0,0-.21-.86l-.53-.91c-.44-.73-.2-1.44.4-1.19l.74.3a.4.4,0,0,0,.55-.14l.33-.57c.26-.47,1,0,1.31.75l.32,1a1.81,1.81,0,0,0,.55.77l.74.55c.6.44.84,1.43.4,1.66l-.53.29a.58.58,0,0,0-.21.62l.13.91c.1.75-.53.91-1.06.27l-.66-.77A1,1,0,0,0,332.37,192.12Z"/>
            <path class="cls-2"
                  d="M339,195.92l-.66,0c-.54,0-1.16-.87-1.06-1.5l.12-.77a1.27,1.27,0,0,0-.21-.86l-.53-.9c-.43-.73-.19-1.44.41-1.2l.73.31a.42.42,0,0,0,.55-.14l.33-.58c.27-.47,1,0,1.31.76l.33.95a1.71,1.71,0,0,0,.55.78l.73.54c.6.45.84,1.43.41,1.67l-.53.28a.57.57,0,0,0-.21.62l.12.92c.1.74-.52.9-1.06.27l-.65-.78A1,1,0,0,0,339,195.92Z"/>
            <path class="cls-25"
                  d="M343.72,201.59l-52.91-30.71a5.19,5.19,0,0,1-2.16-4.13v-6.94a2.61,2.61,0,0,1,.27-1.21c-.95-.26-1.67.47-1.67,1.83v6.94a5.17,5.17,0,0,0,2.17,4.14l52.9,30.71a1.25,1.25,0,0,0,1.89-.42A2,2,0,0,1,343.72,201.59Z"/>
            <path class="cls-24"
                  d="M222.65,100.71h0l-4.26-9.17-1.95,4-29-16.72c-1.74-1-3.15-.2-3.16,1.8l-.08,28.46a7,7,0,0,0,3.13,5.44L220,133.31c1.74,1,3.15.2,3.16-1.8l.08-28.46A6,6,0,0,0,222.65,100.71Z"/>
            <g class="cls-1">
                <path class="cls-33"
                      d="M170.11,73.08l10.33-6a2.22,2.22,0,0,1,2.24.22l-10.34,6A2.22,2.22,0,0,0,170.11,73.08Z"/>
                <path class="cls-34"
                      d="M217.39,122l-10.34,6a2.18,2.18,0,0,0,.92-2l10.34-6A2.24,2.24,0,0,1,217.39,122Z"/>
                <polygon class="cls-34" points="208.05 97.54 218.39 91.54 218.31 120 207.97 126 208.05 97.54"/>
                <polygon class="cls-33" points="172.34 73.3 182.68 67.3 215.25 86.1 204.92 92.11 172.34 73.3"/>
                <polygon class="cls-26" points="194.57 74.16 179.13 74.16 179.13 68.6 184.94 68.6 194.57 74.16"/>
                <polygon class="cls-26"
                         points="215.25 86.1 209.42 89.49 205.69 89.49 205.69 83.93 211.48 83.93 215.25 86.1"/>
                <path class="cls-35"
                      d="M204.92,92.11l10.33-6a6.94,6.94,0,0,1,3.14,5.44l-10.34,6A6.87,6.87,0,0,0,204.92,92.11Z"/>
                <path class="cls-26"
                      d="M204.92,92.11a6.87,6.87,0,0,1,3.13,5.43L208,126c0,2-1.42,2.81-3.15,1.81L172.24,109a6.92,6.92,0,0,1-3.13-5.44l.08-28.46c0-2,1.42-2.8,3.15-1.8Z"/>
                <path class="cls-9"
                      d="M182.42,95.33c0-3.22,2.32-4.46,5.14-2.71a11.07,11.07,0,0,1,4.76,8.48c0,1.88-.84,3.06-2.08,3.36v10c0,.61-.43.86-1,.55l-3.8-2.2a2.13,2.13,0,0,1-1-1.67v-10A10.54,10.54,0,0,1,182.42,95.33Z"/>
                <path class="cls-33"
                      d="M185,91.84a4.22,4.22,0,0,0-.61,2.37,10.62,10.62,0,0,0,2.08,5.82v10a2.16,2.16,0,0,0,1,1.67l2.84,1.64v1.13c0,.61-.43.86-1,.55l-3.8-2.2a2.13,2.13,0,0,1-1-1.67v-10a10.54,10.54,0,0,1-2.08-5.82C182.42,93.19,183.44,91.93,185,91.84Z"/>
            </g>
            <g class="cls-1">
                <polygon class="cls-35" points="179.14 71.28 182.95 69.07 182.94 71.95 179.13 74.16 179.14 71.28"/>
                <path class="cls-34"
                      d="M182.62,63.64l3.8-2.21c-2.13,1.24-3.46,3.89-3.47,7.64l-3.81,2.21C179.15,67.53,180.48,64.89,182.62,63.64Z"/>
                <polygon class="cls-34" points="205.69 86.61 209.5 84.4 209.49 87.28 205.68 89.49 205.69 86.61"/>
                <path class="cls-33"
                      d="M180.68,60.31l3.8-2.21c2.67-1.55,6.36-1.33,10.42,1l-3.81,2.22C187,59,183.34,58.77,180.68,60.31Z"/>
                <path class="cls-35"
                      d="M191.09,61.33l3.81-2.22c8.07,4.67,14.63,16,14.6,25.29l-3.81,2.21C205.72,77.33,199.17,66,191.09,61.33Z"/>
                <path class="cls-26"
                      d="M191.09,61.33c8.08,4.66,14.63,16,14.6,25.28v2.88l-2.74-1.58V85c0-7.55-5.3-16.77-11.87-20.56s-11.92-.74-11.94,6.81v2.88l-2.74-1.58V69.7C176.43,60.42,183,56.67,191.09,61.33Z"/>
            </g>
            <path class="cls-24"
                  d="M303.29,253.65v53c0,.46,0,.9,0,1.33l-4.2,1.76-10.27-16.16c-6.69-10.52-10.53-22.4-10.53-32.56V245.49l20.8,4.09Z"/>
            <path class="cls-15"
                  d="M301.13,237.17l-20.8-4.09,7.4,11.27c0,10.16,3.83,22,10.53,32.57l10,15.67L300.67,297v1.46l5.23-2.19c.39-.16.76-.34,1.12-.52l.89-.52,4.63-2.69.9-.52a15,15,0,0,0,4.38-4.17c2.66-3.74,4.1-8.95,4.1-15.17V257.1Z"/>
            <path class="cls-31"
                  d="M316.43,260.29l-20.8-19.94h0l-20.8-4.08v15.52c0,10.16,3.85,22,10.53,32.57l10.27,16.16h0l10.27-4.29c6.69-2.8,10.53-10.25,10.53-20.41Z"/>
            <path class="cls-15"
                  d="M313,262l-17.35-16.62h0L278.29,242v12.94c0,8.47,3.2,18.38,8.78,27.15l8.56,13.48h0l8.57-3.59c5.57-2.33,8.78-8.54,8.78-17Z"/>
            <path class="cls-2"
                  d="M294.83,279.69l-2.4-4.13c-.53-.93-.53-1.93,0-2.23l15.22-8.68c.53-.3,1.41.2,1.94,1.12l2.4,4.13c.53.93.53,1.93,0,2.24l-15.22,8.67C296.24,281.12,295.36,280.61,294.83,279.69Z"/>
            <path class="cls-2"
                  d="M299.16,279.44l-2.4,1.37c-.53.3-1.4-.2-1.94-1.13L286.87,266c-.54-.92-.54-1.92,0-2.23l2.39-1.36c.54-.31,1.41.19,1.95,1.12l8,13.71C299.7,278.14,299.7,279.14,299.16,279.44Z"/>
            <path class="cls-5"
                  d="M289.16,281.26c-5.58-8.77-8.78-18.68-8.78-27.15V242.36l-2.09-.41v12.94c0,8.47,3.2,18.38,8.78,27.15l8.56,13.48h0l2.05-.86Z"/>
            <polygon class="cls-36" points="274.83 236.27 295.63 240.35 301.13 237.17 280.33 233.08 274.83 236.27"/>
            <polygon class="cls-5" points="316.43 260.29 321.93 257.1 301.13 237.17 295.63 240.35 316.43 260.29"/>
            <ellipse class="cls-7" cx="179.25" cy="343.19" rx="22.02" ry="38.14"
                     transform="translate(-164.91 520.57) rotate(-89.69)"/>
            <path class="cls-37"
                  d="M151.87,235.59c-.08,1.72-.17,3.44-.25,5.16a10.69,10.69,0,0,0,.13,3,9.63,9.63,0,0,0,.7,1.85,9.44,9.44,0,0,0,1.61,2.63,1.71,1.71,0,0,0,.92.58,4.52,4.52,0,0,0,1-.08,3.38,3.38,0,0,1,.77.06l1,.17a1,1,0,0,0,.58,0,2.17,2.17,0,0,0,.29-.24,3.61,3.61,0,0,1,1.28-.39,3,3,0,0,0,1.79-2.29,10.44,10.44,0,0,0,0-4.62,31.88,31.88,0,0,0-1.37-4.46c-.51-1.42-1-2.84-1.54-4.26a3.74,3.74,0,0,1-3.59,1.55,11,11,0,0,1-1.34-.54,2.1,2.1,0,0,0-1.41-.15C151.54,233.85,151.91,234.84,151.87,235.59Z"/>
            <path class="cls-6"
                  d="M158.13,231.38a16.57,16.57,0,0,1-.78-2.86c-.59-2.78-2.6-13-3.19-15.22.66-6.51,1.8-13,2.52-19.45.13-1.19.26-2.38.37-3.57q.55-5.94.79-11.92a46.81,46.81,0,0,1,.18-5.81c.08-.47.31-5,.81-4.9a10.57,10.57,0,0,0-6.64,1.7,11.63,11.63,0,0,0-4.48,5.23,26.65,26.65,0,0,0-1.51,6.68c-.72,4.75-1.26,23.39-1.3,28,0,1.51-.1,3.08,0,4.6a26.45,26.45,0,0,0,1.23,5.53c1.61,5.22,3.61,10.32,5.61,15.41a.85.85,0,0,0,.19.32.78.78,0,0,0,.45.15,8.17,8.17,0,0,0,3.52-.23c1.11-.39,2.47-1.65,2.39-3A2.45,2.45,0,0,0,158.13,231.38Z"/>
            <path class="cls-38"
                  d="M160.09,334.15a31.57,31.57,0,0,0-3.06,1.72c-.5.3-2,1.8-2.3.64a1.86,1.86,0,0,1,.15-1,8.2,8.2,0,0,0-2.53,5.17c-.11,1.58.44,3.94,1.83,4.88a5.22,5.22,0,0,0,5.33-.09c1.31-.78,2-2.26,2.8-3.56A17.67,17.67,0,0,1,169,335.6a15.29,15.29,0,0,0,2.23-1.27,5.64,5.64,0,0,0,2.16-4.79,2.32,2.32,0,0,0-1.22-2.1c.08,1.31-1.23,2.1-2.24,2.68C166.87,331.9,163.29,332.61,160.09,334.15Z"/>
            <path class="cls-8"
                  d="M158.64,342.54a7.47,7.47,0,0,0,1.14-.44c2.88-1.41,4.45-4.61,7.08-6.44,1.12-.78,2.41-1.29,3.56-2a5.7,5.7,0,0,0,2.66-5.31c-.09-.92-.45-1.15-1.33-1.36a9.9,9.9,0,0,0-3.56,0c-3.21.42-6.81,1.11-9.44,3.13a9.21,9.21,0,0,0-1.46,1.53,27.79,27.79,0,0,0-4.19,6.25c-.66,1.5-.71,3.08.73,4.14a4.69,4.69,0,0,0,2.57.82A7.08,7.08,0,0,0,158.64,342.54Z"/>
            <path class="cls-22"
                  d="M176.85,256.65a75,75,0,0,0-1.8-12.4,12.31,12.31,0,0,0-1.92-4.63c-2.08-2.74-5.63-3.54-8.43-5.27-2.14-1.32-5.2-6.75-3.61-9.33-2.86,4.66-5.64,9.58-6.65,15-.92,5,0,10.89,1.29,15.78,1,3.71.61,7.47.72,11.28.22,7.21,2.55,14.44,1,21.56a61.9,61.9,0,0,1-2.28,6.9l-.12.35c-2,6-1.8,12.3-1.41,18.52s1.21,12.71,1.77,19c.32,3.66,7.15.14,8.58-1.31a4.2,4.2,0,0,0,.9-1.2,5.62,5.62,0,0,0,.39-1.86c.92-9.37,6-37.26,7.08-41.88,1-4.28,1.92-8.47,2.78-12.75q.68-3.33,1.1-6.71c.23-1.82.43-3.6.77-5.39A22.87,22.87,0,0,0,176.85,256.65Z"/>
            <path class="cls-39"
                  d="M178.58,356.22a3.74,3.74,0,0,0,.12.45,3.88,3.88,0,0,0,1.21,2.24,3.69,3.69,0,0,0,1.05.65,7.33,7.33,0,0,0,4.25-.05A29.64,29.64,0,0,0,188.9,358a12.87,12.87,0,0,1,2.39-.86,14,14,0,0,1,2-.41c1.82-.13,3.64.18,5.46-.17a9.73,9.73,0,0,0,5.89-3.4,8.47,8.47,0,0,0,1.76-3.19,7.31,7.31,0,0,0-.1-4.22,2.18,2.18,0,0,0-1.36-1.5.39.39,0,0,0-.32,0,.37.37,0,0,0-.14.24,5,5,0,0,1-.38,1.31,7.87,7.87,0,0,1-1.69,2,13,13,0,0,1-1.54,1.14c-.39.25-1.22.93-1.68.93a23.37,23.37,0,0,1-16.2,1.5,13.38,13.38,0,0,0-3-.65,1.11,1.11,0,0,1-.82-.28c-.13-.12-.44-.56-.32-.75a4.91,4.91,0,0,0-.61,2.13A12.57,12.57,0,0,0,178.58,356.22Z"/>
            <path class="cls-4"
                  d="M179,355a4.93,4.93,0,0,0,.85.65,7.41,7.41,0,0,0,2.47.9,12.12,12.12,0,0,0,4,.09,24.56,24.56,0,0,0,2.61-.81,11.9,11.9,0,0,1,2.91-.31c1.7,0,3.36.56,5.05.53a7.39,7.39,0,0,0,4.15-1.21,13.48,13.48,0,0,0,3.64-3.42c1.31-1.86,2.31-4.45,1.07-6.58a2.24,2.24,0,0,0-1.81-1.41,22.61,22.61,0,0,0-3.83.45q-3.21.36-6.42.51a26.24,26.24,0,0,0-5.32.54,17.51,17.51,0,0,0-3.81,1.55c-.94.49-1.77,1.28-2.73.49a3.7,3.7,0,0,1-.9-1.11c-.14-.27-.22-1.09-.39-1.26s-.32.05-.41.19a13.69,13.69,0,0,0-2,7.43,5.83,5.83,0,0,0,.12,1.87A2.93,2.93,0,0,0,179,355Z"/>
            <path class="cls-12"
                  d="M195.13,253.46a150.83,150.83,0,0,0-3.6-22.4c-.86,1.91-1,4.86-2.81,6a15.76,15.76,0,0,1-8.2,2.77,24.27,24.27,0,0,1-8.2-1.62,8.9,8.9,0,0,1-3-1.34c-.29-.22-2.53-2.17-2.22-2.56-2,2.55-2.56,5.93-2.85,9.16a29.23,29.23,0,0,0,.57,10.55l.12.41a32.09,32.09,0,0,0,5.3,9.53,11.07,11.07,0,0,1,2.66,6.74c.42,6.26,2.6,24.87,3.15,27.91.5,2.73-.09,4.88-.6,7.59-.7,3.69-.28,7.27.05,11s.66,7.61,1.08,11.31c.59,5.18,1.19,10.37,1.73,15.55.25,2.45,0,4,2.85,4.61a12.1,12.1,0,0,0,9-2.3,2.43,2.43,0,0,0,.94-1,2.68,2.68,0,0,0,0-1.26c-1.17-10.89,2.24-21.77,2.19-32.72,0-4.57-.65-9.14-.39-13.71a70.39,70.39,0,0,1,.89-7.07A153.55,153.55,0,0,0,195.13,253.46Z"/>
            <path class="cls-40"
                  d="M197.35,181.92a9.49,9.49,0,0,0-3.13-2.19l-8.56-4.33c-3.09-1.56-6.19-3.13-9.42-4.38a52.05,52.05,0,0,0-15-3.33c-2.93-.21-6.43-.1-8.69,2.06-2,1.91-2.46,5.26-2.71,7.86-.87,8.84,1.2,17.14,3.06,25.69,1.15,5.3,2.16,10.63,2.81,16,.47,3.94.86,7.82,1.11,11.78a23.84,23.84,0,0,0,.11,3.69c.51,2.16,3.83,4.41,5.58,5.57,4.65,3.08,11.19,4.31,16.71,4.43,4.3.1,9-.66,12.64-3a3.19,3.19,0,0,0,1.24-1.23,3.57,3.57,0,0,0,.17-1.75c-1-15.48-2.44-31.4,2.11-46.24.48-1.57,1.09-3.15,1.66-4.68s1.47-2.87,1-4.52A3.56,3.56,0,0,0,197.35,181.92Z"/>
            <path class="cls-41"
                  d="M186.77,149a7.58,7.58,0,0,0-.52,2.15,10.09,10.09,0,0,0,.36,2,11.56,11.56,0,0,1,0,3.27q-.22,2.16-.51,4.32a5.44,5.44,0,0,1-.53,2c-.75,1.34-2.42,1.84-3.54,2.88a6.37,6.37,0,0,0-1.82,4.62,4.66,4.66,0,0,0,1.33,2.84c.51.52,1.4,1.25.89,2a1.93,1.93,0,0,1-1.12.69,7.4,7.4,0,0,1-1.62.2,27.77,27.77,0,0,1-11.23-1.85,10.74,10.74,0,0,1-5-3.43,2.16,2.16,0,0,1-.43-.95c-.13-1,.87-1.05,1.49-1.45a1.9,1.9,0,0,0,.77-1.2,12.52,12.52,0,0,0,.41-3.81,10.85,10.85,0,0,0-.69-4.83c-.66-1.47-1.64-2.76-2.3-4.22-.07-.18-.15-.35-.22-.53-1-2.57-2-4.88-1.94-7.7a13.58,13.58,0,0,1,5.88-10.89,16.1,16.1,0,0,1,12.54-2,8.79,8.79,0,0,1,2.52.93,9.07,9.07,0,0,1,2.34,2.12,14.76,14.76,0,0,1,3.31,8.35,15.46,15.46,0,0,1-.11,3.53A6.27,6.27,0,0,1,186.77,149Z"/>
            <path class="cls-14"
                  d="M187.51,138.59a7.76,7.76,0,0,0-5.67-8.87,18.4,18.4,0,0,0-9.25-.87,17.16,17.16,0,0,0-11.71,6.81,11.54,11.54,0,0,0-2.17,5.64c-.41,4.56,1,9.18,2.72,13.36a19.81,19.81,0,0,0,3.43,6.36c1.63,1.77,4.81,2.38,7.13,1.95,2.15-.4,5.35-1.75,6.16-3.94.53-1.43.16-3,.13-4.55,0-1.35.1-3.73,1.18-4.71s2.75-.5,3.76.4a5.17,5.17,0,0,1,1.59,3.78,96.49,96.49,0,0,0,2.63-14.42C187.47,139.22,187.5,138.9,187.51,138.59Z"/>
            <path class="cls-39"
                  d="M158.59,142.73c.16.8.59,1.41,1.56,1.35a5.65,5.65,0,0,0,2.26-.78,28.33,28.33,0,0,0,3.07-1.88c.19.66,1,.92,1.66,1.05,6.24,1.22,13,1,18.58-2a3.48,3.48,0,0,0,1.95-2.1,8.23,8.23,0,0,0-2.87-8.05,13.19,13.19,0,0,0-5.44-2.49,18.68,18.68,0,0,0-9.16,0,16.06,16.06,0,0,0-9.51,6.38,12.82,12.82,0,0,0-2.05,5.65A9.6,9.6,0,0,0,158.59,142.73Z"/>
            <path class="cls-41"
                  d="M231,183.05c.37-1.27.94-2.47,1.42-3.71,1.24-3.26,1.74-6.75,2.9-10a6.06,6.06,0,0,1,1.57-2.67,1.08,1.08,0,0,1,1-.33.86.86,0,0,1,.52.69,2.46,2.46,0,0,1-.07.89,70.75,70.75,0,0,0-1.43,8.14,12.77,12.77,0,0,1,3.11-.6,2.49,2.49,0,0,1,.82,0,1.44,1.44,0,0,1,.9,1.89,1.19,1.19,0,0,1,.8.89,5.31,5.31,0,0,1,.08,1.26.63.63,0,0,0,.08.38.82.82,0,0,0,.22.19,1.82,1.82,0,0,1,.72,1.34,3.17,3.17,0,0,1-.45,1.57c-1.62,3.06-4.6,5.11-6.9,7.7-.06.07-.14.14-.22.12s-.12-.09-.16-.15a2.64,2.64,0,0,0-1.54-1.22c-.51-.15-1.06-.14-1.58-.28C230.27,188.45,230.43,185,231,183.05Z"/>
            <path class="cls-6"
                  d="M237.4,188.6a1.61,1.61,0,0,0-.17-.51,3.22,3.22,0,0,0-1.33-1.33,6.54,6.54,0,0,0-3.64-.91,2.66,2.66,0,0,0-1.21.29,3.44,3.44,0,0,0-.74.64l-.1.1c-1.3,1.38-11.05,10.77-12.89,12.12l-.3.21c-.59-.58-1.21-1.13-1.84-1.66-4-3.25-8.44-5.91-11.84-9.73-1.19-1.34-2.23-2.8-3.44-4.12a17,17,0,0,0-7.78-5c-2.6-.74-5.79-.48-7.6,1.79l-.05.07c-1.92,2.45-2.38,6.41-2,9.34a9.71,9.71,0,0,0,5.15,7.69c1,.47,2.07.72,3.07,1.18a21.63,21.63,0,0,1,4.12,2.88c5.43,4.27,11.93,6.88,18.34,9.44a12.49,12.49,0,0,0,3.1.89,6.6,6.6,0,0,0,2.26,0,5.67,5.67,0,0,0,1.73-1.29,37.8,37.8,0,0,0,3.7-3.68,120.71,120.71,0,0,0,7.74-9.45c1.21-1.64,2.37-3.31,3.5-5a30.62,30.62,0,0,1,1.68-2.57A1.74,1.74,0,0,0,237.4,188.6Z"/>
        </g>
    </g>
</svg>